<?xml version="1.0" encoding="UTF-8" standalone="no"?>
<svg width="32px" height="32px" viewBox="0 0 32 32" version="1.1" xmlns="http://www.w3.org/2000/svg" xmlns:xlink="http://www.w3.org/1999/xlink">
    <!-- Generator: Sketch 47.1 (45422) - http://www.bohemiancoding.com/sketch -->
    <title>icons/menu_users</title>
    <desc>Created with Sketch.</desc>
    <defs></defs>
    <g id="Symbols" stroke="none" stroke-width="1" fill="none" fill-rule="evenodd">
        <g id="icons/menu_users" fill="#E60000">
            <path d="M16,6 C14.936,6 13.971,6.432 13.273,7.13 C12.576,7.828 12.25,8.792 12.25,9.857 C12.25,12.697 13.871,15 16,15 C18.13,15 19.75,12.697 19.75,9.857 C19.75,8.792 19.425,7.828 18.728,7.13 C18.029,6.432 17.065,6 16,6" id="Fill-3"></path>
            <path d="M23.7446,19.3159 C23.1226,17.6319 21.3616,16.6669 19.3336,16.6669 C19.3336,16.6669 17.1426,17.4999 15.9996,17.4999 C14.8576,17.4999 12.6666,16.6669 12.6666,16.6669 C10.6386,16.6669 8.8776,17.6319 8.2556,19.3159 C6.8476,17.5929 5.9996,15.3939 5.9996,12.9999 C5.9996,7.4859 10.4856,2.9999 15.9996,2.9999 C21.5146,2.9999 25.9996,7.4859 25.9996,12.9999 C25.9996,15.3939 25.1526,17.5929 23.7446,19.3159 M15.9996,0.9999 C9.3726,0.9999 3.9996,6.3729 3.9996,12.9999 C3.9996,19.6279 9.3726,24.9999 15.9996,24.9999 C22.6276,24.9999 27.9996,19.6279 27.9996,12.9999 C27.9996,6.3729 22.6276,0.9999 15.9996,0.9999" id="Fill-5"></path>
            <path d="M24,29.9995 C24,30.5515 23.552,30.9995 23,30.9995 L9,30.9995 C8.448,30.9995 8,30.5515 8,29.9995 C8,29.4475 8.448,28.9995 9,28.9995 L23,28.9995 C23.552,28.9995 24,29.4475 24,29.9995" id="Fill-7"></path>
        </g>
    </g>
</svg>