<?xml version="1.0" encoding="utf-8"?>
<!-- Generator: Adobe Illustrator 16.0.0, SVG Export Plug-In . SVG Version: 6.00 Build 0)  -->
<!DOCTYPE svg PUBLIC "-//W3C//DTD SVG 1.0//EN" "http://www.w3.org/TR/2001/REC-SVG-20010904/DTD/svg10.dtd">
<svg version="1.0" id="Layer_1" xmlns="http://www.w3.org/2000/svg" xmlns:xlink="http://www.w3.org/1999/xlink" x="0px" y="0px"
	 width="20px" height="20px" viewBox="0 0 20 20" enable-background="new 0 0 20 20" xml:space="preserve">
<g>
	<g>
		<path fill="#E30613" d="M9.024,15.772c0.143-0.065,0.278-0.145,0.406-0.232c0.027-0.02,0.055-0.038,0.082-0.059
			c0.162-0.12,0.311-0.258,0.45-0.404c0.183-0.193,0.346-0.404,0.492-0.626c0.116-0.177,0.222-0.359,0.318-0.547
			c0.375-0.733,0.613-1.55,0.736-2.349c0.081-0.521,0.118-1.043,0.117-1.556c0.001-0.513-0.036-1.035-0.117-1.556
			c-0.123-0.8-0.361-1.617-0.736-2.35c-0.044-0.085-0.09-0.17-0.137-0.253c-0.2,0.365-0.364,0.75-0.496,1.145
			c0.242,0.722,0.383,1.481,0.436,2.238C10.592,9.481,10.599,9.739,10.6,10h-0.001c0,0.259-0.007,0.518-0.024,0.773
			c-0.063,0.927-0.257,1.854-0.613,2.711c-0.138,0.334-0.301,0.657-0.492,0.967c-0.044,0.072-0.085,0.146-0.133,0.217
			c-0.097,0.144-0.202,0.284-0.312,0.421c-0.126,0.158-0.261,0.31-0.406,0.451c-0.153,0.148-0.317,0.288-0.491,0.412
			c-0.013,0.01-0.027,0.021-0.041,0.031v0.016h0C8.408,15.991,8.729,15.909,9.024,15.772 M9.026,15.093L9.026,15.093z"/>
		<path fill="#E30613" d="M10.898,15.773c0.143-0.065,0.278-0.146,0.406-0.233c0.027-0.02,0.056-0.037,0.082-0.059
			c0.544-0.406,0.953-0.977,1.26-1.577c0.374-0.733,0.612-1.55,0.737-2.349c0.08-0.521,0.117-1.043,0.116-1.556
			c0.001-0.513-0.036-1.035-0.116-1.556c-0.125-0.8-0.363-1.617-0.737-2.35c-0.283-0.556-0.656-1.082-1.139-1.48
			c-0.156,0.167-0.299,0.344-0.432,0.524c0.047,0.064,0.092,0.128,0.135,0.193c0.773,1.147,1.144,2.522,1.238,3.893
			C12.468,9.481,12.475,9.74,12.476,10c-0.001,0.259-0.008,0.518-0.026,0.773c-0.095,1.371-0.465,2.745-1.238,3.894
			c-0.097,0.145-0.201,0.286-0.312,0.422c-0.127,0.158-0.262,0.31-0.405,0.451c-0.154,0.15-0.317,0.288-0.491,0.412
			c-0.014,0.01-0.027,0.021-0.041,0.031v0.016C10.283,15.991,10.604,15.909,10.898,15.773"/>
		<path fill="#E30613" d="M13.262,15.481c0.544-0.406,0.952-0.977,1.259-1.577c0.375-0.733,0.614-1.55,0.737-2.349
			c0.081-0.521,0.118-1.043,0.116-1.557l0,0c0.002-0.512-0.035-1.034-0.116-1.555c-0.123-0.8-0.362-1.617-0.737-2.35
			c-0.307-0.601-0.715-1.172-1.259-1.578C12.855,4.213,12.348,4.013,11.836,4v0.016c0.497,0.346,0.917,0.819,1.25,1.315
			c0.772,1.148,1.144,2.523,1.239,3.894c0.017,0.257,0.025,0.515,0.025,0.774c0,0.261-0.009,0.519-0.025,0.775
			c-0.096,1.371-0.467,2.745-1.239,3.893c-0.333,0.496-0.753,0.971-1.25,1.316V16l0,0C12.347,15.985,12.855,15.786,13.262,15.481"/>
		<path fill="#E30613" d="M10.899,4.226c-0.144,0.065-0.278,0.146-0.406,0.234c-0.028,0.019-0.056,0.036-0.083,0.057
			c-0.162,0.121-0.311,0.259-0.449,0.405C9.779,5.115,9.616,5.325,9.47,5.549C9.354,5.726,9.247,5.907,9.152,6.095
			c-0.375,0.732-0.614,1.55-0.737,2.35C8.334,8.965,8.297,9.487,8.298,10c0,0.513,0.037,1.034,0.117,1.556
			c0.124,0.799,0.362,1.615,0.737,2.349c0.044,0.085,0.09,0.169,0.138,0.253c0.199-0.365,0.363-0.75,0.495-1.145
			c-0.243-0.722-0.383-1.48-0.436-2.239C9.331,10.518,9.325,10.26,9.324,10h0c0-0.26,0.006-0.519,0.024-0.775
			c0.064-0.926,0.258-1.853,0.613-2.71c0.138-0.335,0.301-0.657,0.492-0.966c0.044-0.073,0.086-0.147,0.134-0.217
			c0.096-0.146,0.201-0.286,0.312-0.423c0.126-0.156,0.261-0.309,0.405-0.449c0.153-0.15,0.318-0.29,0.49-0.413
			c0.014-0.01,0.027-0.021,0.041-0.031V4l0,0C11.516,4.008,11.193,4.091,10.899,4.226 M10.897,4.906L10.897,4.906z"/>
		<path fill="#E30613" d="M9.024,4.226C8.881,4.291,8.746,4.372,8.619,4.46C8.591,4.479,8.563,4.496,8.537,4.517
			c-0.544,0.406-0.952,0.978-1.26,1.578c-0.375,0.732-0.613,1.55-0.737,2.35C6.459,8.965,6.423,9.487,6.423,10
			c0,0.513,0.036,1.034,0.116,1.556c0.124,0.799,0.363,1.615,0.737,2.349c0.283,0.555,0.655,1.082,1.139,1.48
			c0.155-0.167,0.3-0.343,0.432-0.524c-0.046-0.064-0.091-0.128-0.135-0.193c-0.773-1.147-1.144-2.521-1.239-3.894
			C7.456,10.518,7.448,10.26,7.447,10c0-0.261,0.008-0.519,0.026-0.775c0.095-1.37,0.465-2.745,1.239-3.893
			c0.097-0.146,0.201-0.286,0.312-0.423C9.151,4.753,9.286,4.601,9.43,4.46c0.153-0.15,0.317-0.288,0.49-0.413
			c0.014-0.01,0.028-0.021,0.041-0.031V4C9.64,4.008,9.319,4.091,9.024,4.226"/>
		<path fill="#E30613" d="M6.662,4.517C6.118,4.923,5.709,5.494,5.402,6.095c-0.375,0.732-0.614,1.55-0.737,2.35
			C4.584,8.965,4.548,9.487,4.549,10h0c0,0.513,0.036,1.034,0.117,1.556c0.124,0.799,0.363,1.615,0.737,2.349
			c0.307,0.601,0.715,1.171,1.259,1.577c0.406,0.305,0.914,0.504,1.425,0.518v-0.016c-0.496-0.346-0.916-0.82-1.249-1.315
			c-0.773-1.149-1.144-2.523-1.238-3.895C5.581,10.518,5.572,10.26,5.572,10c0-0.261,0.009-0.519,0.027-0.775
			c0.094-1.37,0.465-2.745,1.238-3.893c0.333-0.496,0.753-0.971,1.25-1.316V4h0C7.577,4.013,7.067,4.213,6.662,4.517"/>
		<path fill="#E30613" d="M10.291,15.385c0.155-0.167,0.299-0.343,0.432-0.524c-0.047-0.064-0.092-0.128-0.135-0.192
			c-0.048-0.071-0.09-0.145-0.134-0.217c-0.146,0.222-0.31,0.433-0.492,0.626C10.065,15.187,10.174,15.289,10.291,15.385"/>
		<path fill="#E30613" d="M11.305,15.54c-0.127,0.088-0.264,0.168-0.405,0.233c0.294,0.136,0.616,0.218,0.937,0.227l0,0v-0.017
			C11.648,15.852,11.471,15.702,11.305,15.54"/>
		<path fill="#E30613" d="M9.785,15.986c0.05-0.005,0.101-0.013,0.151-0.021c-0.051-0.038-0.102-0.073-0.151-0.114
			c-0.124-0.096-0.242-0.2-0.354-0.311c-0.128,0.088-0.263,0.168-0.406,0.233c0.194,0.089,0.399,0.153,0.608,0.191
			C9.683,15.974,9.734,15.981,9.785,15.986 M9.961,15.999v-0.016c-0.009-0.006-0.016-0.014-0.025-0.019
			c-0.05,0.009-0.101,0.017-0.151,0.021C9.843,15.993,9.902,15.997,9.961,15.999z"/>
		<path fill="#E30613" d="M9.633,4.614C9.477,4.78,9.333,4.958,9.202,5.14c0.046,0.063,0.091,0.127,0.134,0.192
			C9.383,5.401,9.425,5.476,9.47,5.549c0.146-0.224,0.309-0.434,0.492-0.627C9.858,4.812,9.749,4.71,9.633,4.614"/>
		<path fill="#E30613" d="M8.618,4.46c0.128-0.088,0.264-0.169,0.406-0.234C8.729,4.091,8.408,4.008,8.087,4h0v0.016
			C8.276,4.148,8.452,4.297,8.618,4.46"/>
		<path fill="#E30613" d="M10.899,4.226c-0.194-0.088-0.4-0.153-0.609-0.19c-0.051-0.009-0.102-0.017-0.151-0.022
			C10.08,4.007,10.021,4.001,9.962,4v0.016c0.008,0.006,0.016,0.013,0.025,0.02l0,0c0.051,0.037,0.102,0.073,0.152,0.113
			c0.123,0.096,0.241,0.2,0.354,0.312C10.621,4.372,10.756,4.291,10.899,4.226"/>
	</g>
</g>
</svg>
