<?xml version="1.0" encoding="UTF-8" standalone="no"?>
<svg width="20px" height="20px" viewBox="0 0 20 20" version="1.1" xmlns="http://www.w3.org/2000/svg" xmlns:xlink="http://www.w3.org/1999/xlink">
    <!-- Generator: Sketch 49 (51002) - http://www.bohemiancoding.com/sketch -->
    <title>icons/phonehouse-neg copy</title>
    <desc>Created with Sketch.</desc>
    <defs></defs>
    <g id="icons/phonehouse-neg-copy" stroke="none" stroke-width="1" fill="none" fill-rule="evenodd">
        <g id="Group" transform="translate(4.000000, 4.000000)" fill="#FFFFFF">
            <path d="M5.0625,11.7728 C5.2055,11.7068 5.3405,11.6278 5.4685,11.5398 C5.4955,11.5208 5.5235,11.5018 5.5505,11.4818 C5.7115,11.3618 5.8615,11.2238 6.0005,11.0768 C6.1825,10.8838 6.3455,10.6728 6.4925,10.4508 C6.6075,10.2748 6.7145,10.0918 6.8105,9.9048 C7.1855,9.1708 7.4235,8.3548 7.5465,7.5558 C7.6275,7.0338 7.6645,6.5128 7.6645,5.9998 C7.6645,5.4878 7.6275,4.9648 7.5465,4.4448 C7.4235,3.6448 7.1855,2.8268 6.8105,2.0948 C6.7665,2.0098 6.7195,1.9248 6.6725,1.8418 C6.4735,2.2068 6.3095,2.5918 6.1775,2.9868 C6.4195,3.7078 6.5615,4.4678 6.6135,5.2248 C6.6305,5.4818 6.6375,5.7388 6.6375,5.9998 C6.6375,6.2588 6.6305,6.5178 6.6135,6.7738 C6.5495,7.6998 6.3555,8.6268 6.0005,9.4848 C5.8615,9.8188 5.6985,10.1418 5.5075,10.4508 C5.4635,10.5238 5.4225,10.5968 5.3755,10.6678 C5.2785,10.8118 5.1735,10.9518 5.0625,11.0888 C4.9365,11.2468 4.8015,11.3988 4.6565,11.5398 C4.5035,11.6888 4.3395,11.8278 4.1665,11.9518 C4.1525,11.9618 4.1385,11.9738 4.1255,11.9838 L4.1255,11.9988 C4.4465,11.9908 4.7685,11.9088 5.0625,11.7728 Z" id="Fill-3"></path>
            <path d="M6.9375,11.7734 C7.0805,11.7084 7.2155,11.6274 7.3435,11.5404 C7.3705,11.5204 7.3985,11.5024 7.4255,11.4814 C7.9695,11.0754 8.3775,10.5044 8.6855,9.9044 C9.0595,9.1704 9.2975,8.3544 9.4215,7.5554 C9.5025,7.0344 9.5395,6.5124 9.5385,6.0004 C9.5395,5.4874 9.5025,4.9644 9.4225,4.4444 C9.2975,3.6444 9.0595,2.8274 8.6855,2.0944 C8.4015,1.5394 8.0295,1.0124 7.5455,0.6144 C7.3905,0.7814 7.2475,0.9584 7.1145,1.1384 C7.1615,1.2034 7.2065,1.2664 7.2495,1.3324 C8.0225,2.4794 8.3935,3.8544 8.4885,5.2244 C8.5065,5.4814 8.5135,5.7404 8.5145,6.0004 C8.5135,6.2584 8.5065,6.5174 8.4885,6.7734 C8.3935,8.1444 8.0225,9.5184 7.2495,10.6674 C7.1525,10.8114 7.0475,10.9534 6.9375,11.0884 C6.8105,11.2474 6.6755,11.3984 6.5315,11.5404 C6.3775,11.6904 6.2145,11.8284 6.0415,11.9524 C6.0275,11.9614 6.0135,11.9734 6.0005,11.9834 L6.0005,11.9994 C6.3215,11.9914 6.6425,11.9094 6.9375,11.7734" id="Fill-5"></path>
            <path d="M9.3003,11.4814 C9.8443,11.0754 10.2523,10.5044 10.5593,9.9044 C10.9333,9.1704 11.1733,8.3544 11.2963,7.5554 C11.3773,7.0344 11.4143,6.5124 11.4133,5.9994 C11.4143,5.4874 11.3773,4.9644 11.2963,4.4444 C11.1733,3.6444 10.9333,2.8274 10.5593,2.0944 C10.2523,1.4944 9.8443,0.9224 9.3003,0.5164 C8.8943,0.2124 8.3863,0.0124 7.8753,0.0004 L7.8753,0.0154 C8.3713,0.3614 8.7913,0.8354 9.1243,1.3314 C9.8973,2.4794 10.2683,3.8544 10.3633,5.2244 C10.3803,5.4814 10.3893,5.7394 10.3893,5.9994 C10.3893,6.2594 10.3803,6.5174 10.3633,6.7744 C10.2683,8.1454 9.8973,9.5194 9.1243,10.6674 C8.7913,11.1634 8.3713,11.6374 7.8743,11.9834 L7.8743,12.0004 L7.8753,12.0004 C8.3853,11.9854 8.8943,11.7864 9.3003,11.4814" id="Fill-7"></path>
            <path d="M6.938,0.2253 C6.795,0.2913 6.659,0.3723 6.532,0.4603 C6.504,0.4783 6.477,0.4963 6.45,0.5163 C6.288,0.6373 6.139,0.7753 6,0.9223 C5.817,1.1153 5.654,1.3253 5.509,1.5493 C5.393,1.7253 5.286,1.9073 5.19,2.0943 C4.815,2.8273 4.577,3.6443 4.453,4.4443 C4.373,4.9653 4.336,5.4873 4.336,6.0003 C4.336,6.5123 4.373,7.0343 4.453,7.5553 C4.577,8.3543 4.815,9.1713 5.19,9.9043 C5.234,9.9893 5.28,10.0733 5.328,10.1573 C5.527,9.7923 5.691,9.4073 5.823,9.0123 C5.58,8.2913 5.439,7.5323 5.387,6.7733 C5.369,6.5173 5.363,6.2603 5.363,6.0003 C5.363,5.7403 5.369,5.4813 5.387,5.2243 C5.451,4.2993 5.645,3.3723 6,2.5143 C6.138,2.1793 6.302,1.8573 6.492,1.5493 C6.537,1.4753 6.579,1.4013 6.626,1.3323 C6.723,1.1863 6.827,1.0463 6.938,0.9093 C7.064,0.7533 7.199,0.6003 7.344,0.4603 C7.497,0.3093 7.661,0.1703 7.834,0.0473 C7.848,0.0373 7.861,0.0263 7.875,0.0153 L7.875,0.0003 L7.874,0.0003 C7.554,0.0083 7.232,0.0913 6.938,0.2253 Z" id="Fill-9"></path>
            <path d="M5.063,0.2256 C4.92,0.2906 4.785,0.3716 4.657,0.4596 C4.63,0.4786 4.602,0.4966 4.575,0.5166 C4.031,0.9226 3.623,1.4946 3.315,2.0946 C2.941,2.8276 2.702,3.6446 2.578,4.4446 C2.498,4.9646 2.461,5.4876 2.462,5.9996 C2.461,6.5126 2.498,7.0346 2.578,7.5556 C2.702,8.3546 2.941,9.1706 3.315,9.9046 C3.599,10.4586 3.971,10.9866 4.454,11.3846 C4.609,11.2176 4.754,11.0416 4.886,10.8606 C4.839,10.7956 4.794,10.7326 4.751,10.6666 C3.978,9.5196 3.607,8.1456 3.512,6.7736 C3.494,6.5176 3.486,6.2596 3.486,5.9996 C3.486,5.7396 3.494,5.4816 3.512,5.2246 C3.607,3.8546 3.978,2.4796 4.751,1.3316 C4.848,1.1866 4.952,1.0456 5.063,0.9096 C5.19,0.7526 5.324,0.6006 5.469,0.4596 C5.622,0.3096 5.786,0.1716 5.959,0.0466 C5.973,0.0376 5.987,0.0266 6,0.0156 L6,-0.0004 C5.679,0.0076 5.357,0.0906 5.063,0.2256" id="Fill-11"></path>
            <path d="M2.7002,0.5166 C2.1562,0.9226 1.7482,1.4946 1.4412,2.0946 C1.0662,2.8276 0.8272,3.6446 0.7032,4.4446 C0.6232,4.9646 0.5862,5.4876 0.5872,5.9996 C0.5862,6.5126 0.6232,7.0346 0.7032,7.5556 C0.8272,8.3546 1.0662,9.1706 1.4412,9.9046 C1.7482,10.5046 2.1562,11.0756 2.7002,11.4816 C3.1062,11.7866 3.6142,11.9856 4.1252,11.9986 L4.1252,11.9836 C3.6292,11.6376 3.2092,11.1626 2.8762,10.6676 C2.1032,9.5186 1.7322,8.1446 1.6382,6.7736 C1.6192,6.5176 1.6112,6.2596 1.6112,5.9996 C1.6112,5.7396 1.6192,5.4816 1.6382,5.2246 C1.7322,3.8546 2.1032,2.4796 2.8762,1.3316 C3.2092,0.8356 3.6292,0.3616 4.1252,0.0156 L4.1252,-0.0004 C3.6152,0.0126 3.1062,0.2126 2.7002,0.5166" id="Fill-13"></path>
            <path d="M6.3296,11.3848 C6.4846,11.2178 6.6286,11.0418 6.7606,10.8608 C6.7136,10.7958 6.6696,10.7328 6.6256,10.6678 C6.5786,10.5968 6.5366,10.5238 6.4926,10.4508 C6.3466,10.6728 6.1826,10.8838 5.9996,11.0768 C6.1036,11.1868 6.2126,11.2888 6.3296,11.3848" id="Fill-15"></path>
            <path d="M7.3437,11.54 C7.2157,11.628 7.0797,11.708 6.9377,11.773 C7.2327,11.909 7.5537,11.991 7.8747,12 L7.8747,11.983 C7.6867,11.852 7.5097,11.702 7.3437,11.54" id="Fill-17"></path>
            <path d="M6,11.999 L6,11.983 C5.991,11.978 5.984,11.97 5.975,11.965 C5.924,11.974 5.874,11.981 5.823,11.986 C5.882,11.993 5.941,11.997 6,11.999 M5.823,11.986 C5.874,11.981 5.924,11.974 5.975,11.965 C5.924,11.927 5.873,11.892 5.823,11.851 C5.7,11.755 5.582,11.65 5.469,11.54 C5.341,11.628 5.206,11.708 5.063,11.773 C5.257,11.862 5.462,11.927 5.671,11.965 C5.722,11.974 5.772,11.981 5.823,11.986" id="Fill-19"></path>
            <path d="M5.6714,0.6143 C5.5154,0.7803 5.3724,0.9583 5.2404,1.1393 C5.2864,1.2033 5.3314,1.2663 5.3744,1.3323 C5.4214,1.4013 5.4634,1.4753 5.5084,1.5493 C5.6544,1.3253 5.8174,1.1153 6.0004,0.9223 C5.8964,0.8113 5.7874,0.7103 5.6714,0.6143" id="Fill-21"></path>
            <path d="M4.6567,0.46 C4.7847,0.372 4.9207,0.291 5.0627,0.226 C4.7677,0.091 4.4467,0.008 4.1257,0 L4.1257,0.016 C4.3147,0.148 4.4907,0.297 4.6567,0.46" id="Fill-23"></path>
            <path d="M6.938,0.2256 C6.743,0.1376 6.538,0.0726 6.329,0.0356 C6.278,0.0266 6.228,0.0186 6.178,0.0126 C6.119,0.0066 6.06,0.0006 6.001,-0.0004 L6.001,0.0156 C6.009,0.0216 6.017,0.0286 6.025,0.0356 C6.077,0.0726 6.127,0.1086 6.178,0.1486 C6.301,0.2446 6.419,0.3486 6.532,0.4596 C6.659,0.3716 6.795,0.2906 6.938,0.2256" id="Fill-25"></path>
        </g>
    </g>
</svg>