<?xml version="1.0" encoding="UTF-8" standalone="no"?>
<svg width="20px" height="20px" viewBox="0 0 20 20" version="1.1" xmlns="http://www.w3.org/2000/svg" xmlns:xlink="http://www.w3.org/1999/xlink">
    <!-- Generator: Sketch 48.2 (47327) - http://www.bohemiancoding.com/sketch -->
    <title>icons/phonehouse-neg</title>
    <desc>Created with Sketch.</desc>
    <defs>
        <polygon id="path-1" points="0.0004 0.178 6.0444 0.178 6.0444 6.8019 0.0004 6.8019"></polygon>
    </defs>
    <g id="Symbols" stroke="none" stroke-width="1" fill="none" fill-rule="evenodd">
        <g id="icons/phonehouse-neg">
            <g id="Page-1" transform="translate(3.000000, 5.000000)">
                <polygon id="Fill-1" fill="#FFFFFF" points="0 9.82227 14 9.82227 14 9.03327 0 9.03327"></polygon>
                <g id="Group-7" transform="translate(0.000000, 0.822270)">
                    <g id="Group-4">
                        <mask id="mask-2" fill="white">
                            <use xlink:href="#path-1"></use>
                        </mask>
                        <g id="Clip-3"></g>
                        <path d="M2.3164,3.2139 L2.3164,1.4189 L2.8874,1.4189 C3.6264,1.4189 3.9114,1.7209 3.9114,2.3089 C3.9114,2.8609 3.6264,3.2139 2.8874,3.2139 L2.3164,3.2139 Z M0.0004,6.8019 L2.3164,6.8019 L2.3164,4.4539 L3.2904,4.4539 C5.3894,4.4539 6.0444,3.3139 6.0444,2.2749 C6.0444,1.1999 5.3384,0.1779 3.4084,0.1779 L0.0004,0.1779 L0.0004,6.8019 Z" id="Fill-2" fill="#FFFFFF" mask="url(#mask-2)"></path>
                    </g>
                    <polygon id="Fill-5" fill="#FFFFFF" points="6.6294 0.2109 8.9464 0.2109 8.9464 2.6089 11.5154 2.6089 11.5154 0.2109 13.8154 0.2109 13.8154 6.8189 11.5154 6.8189 11.5154 4.3199 8.9464 4.3199 8.9464 6.8189 6.6294 6.8189"></polygon>
                </g>
            </g>
        </g>
    </g>
</svg>