<?xml version="1.0" encoding="utf-8"?>
<!-- Generator: Adobe Illustrator 16.0.0, SVG Export Plug-In . SVG Version: 6.00 Build 0)  -->
<!DOCTYPE svg PUBLIC "-//W3C//DTD SVG 1.0//EN" "http://www.w3.org/TR/2001/REC-SVG-20010904/DTD/svg10.dtd">
<svg version="1.0" id="Layer_1" xmlns="http://www.w3.org/2000/svg" xmlns:xlink="http://www.w3.org/1999/xlink" x="0px" y="0px"
	 width="20px" height="20px" viewBox="0 0 20 20" enable-background="new 0 0 20 20" xml:space="preserve">
<g>
	<g>
		<path fill="#E30613" d="M9.024,15.771c0.143-0.064,0.278-0.145,0.406-0.231c0.027-0.021,0.055-0.038,0.082-0.06
			c0.162-0.119,0.311-0.258,0.45-0.403c0.183-0.193,0.346-0.404,0.492-0.626c0.116-0.178,0.222-0.359,0.317-0.547
			c0.375-0.733,0.613-1.551,0.736-2.35c0.081-0.521,0.118-1.043,0.117-1.556c0.001-0.513-0.036-1.035-0.117-1.556
			c-0.123-0.8-0.361-1.617-0.736-2.35c-0.043-0.085-0.09-0.17-0.137-0.253c-0.2,0.365-0.364,0.75-0.496,1.145
			c0.242,0.722,0.382,1.481,0.436,2.238C10.592,9.481,10.6,9.739,10.6,10l0,0c0,0.259-0.008,0.518-0.024,0.773
			c-0.063,0.927-0.257,1.854-0.613,2.711c-0.138,0.334-0.301,0.656-0.492,0.967c-0.044,0.072-0.085,0.146-0.133,0.217
			c-0.097,0.145-0.202,0.284-0.312,0.421c-0.126,0.158-0.261,0.31-0.406,0.451c-0.153,0.147-0.317,0.288-0.491,0.412
			c-0.013,0.01-0.027,0.021-0.041,0.03v0.017l0,0C8.408,15.991,8.729,15.909,9.024,15.771 M9.026,15.094L9.026,15.094z"/>
		<path fill="#E30613" d="M10.898,15.773c0.143-0.065,0.277-0.146,0.406-0.233c0.026-0.021,0.055-0.037,0.082-0.06
			c0.543-0.405,0.952-0.977,1.26-1.576c0.373-0.733,0.611-1.551,0.736-2.35c0.08-0.521,0.117-1.043,0.116-1.556
			c0.001-0.513-0.036-1.035-0.116-1.556c-0.125-0.8-0.363-1.617-0.736-2.35c-0.283-0.556-0.656-1.082-1.14-1.48
			c-0.155,0.167-0.299,0.344-0.432,0.524c0.047,0.064,0.092,0.128,0.135,0.193c0.772,1.147,1.144,2.522,1.237,3.893
			C12.468,9.481,12.475,9.74,12.477,10c-0.002,0.259-0.009,0.518-0.026,0.773c-0.095,1.371-0.466,2.744-1.238,3.894
			c-0.097,0.146-0.2,0.286-0.312,0.422c-0.127,0.158-0.262,0.31-0.405,0.451c-0.154,0.149-0.317,0.288-0.491,0.412
			c-0.014,0.01-0.027,0.021-0.041,0.03v0.017C10.283,15.991,10.604,15.909,10.898,15.773"/>
		<path fill="#E30613" d="M13.262,15.48c0.545-0.405,0.952-0.977,1.26-1.576c0.375-0.733,0.613-1.551,0.736-2.35
			c0.081-0.521,0.118-1.043,0.116-1.557l0,0c0.002-0.512-0.035-1.034-0.116-1.555c-0.123-0.8-0.361-1.617-0.736-2.35
			c-0.308-0.601-0.715-1.172-1.26-1.578C12.855,4.213,12.348,4.013,11.836,4v0.016c0.497,0.346,0.917,0.819,1.25,1.315
			c0.771,1.148,1.145,2.523,1.239,3.894c0.017,0.257,0.024,0.515,0.024,0.774c0,0.261-0.009,0.519-0.024,0.774
			c-0.097,1.371-0.468,2.746-1.239,3.894c-0.333,0.496-0.753,0.972-1.25,1.315V16l0,0C12.348,15.984,12.855,15.786,13.262,15.48"/>
		<path fill="#E30613" d="M10.898,4.226c-0.144,0.065-0.277,0.146-0.405,0.234c-0.028,0.019-0.056,0.036-0.083,0.057
			c-0.162,0.121-0.311,0.259-0.449,0.405C9.779,5.115,9.616,5.325,9.47,5.549C9.354,5.726,9.247,5.907,9.152,6.095
			c-0.375,0.732-0.614,1.55-0.737,2.35C8.334,8.965,8.297,9.487,8.298,10c0,0.514,0.037,1.034,0.117,1.557
			c0.124,0.799,0.362,1.614,0.737,2.348c0.044,0.086,0.09,0.17,0.138,0.254c0.199-0.365,0.363-0.75,0.495-1.145
			c-0.243-0.723-0.383-1.48-0.436-2.24C9.331,10.518,9.325,10.26,9.324,10l0,0c0-0.26,0.006-0.519,0.024-0.775
			c0.064-0.926,0.258-1.853,0.613-2.71c0.138-0.335,0.301-0.657,0.492-0.966c0.044-0.073,0.086-0.147,0.134-0.217
			c0.097-0.146,0.201-0.286,0.312-0.423C11.025,4.753,11.16,4.6,11.305,4.46c0.152-0.15,0.317-0.29,0.489-0.413
			c0.015-0.01,0.026-0.021,0.041-0.031V4l0,0C11.516,4.008,11.193,4.091,10.898,4.226 M10.896,4.906L10.896,4.906z"/>
		<path fill="#E30613" d="M9.024,4.226C8.881,4.291,8.746,4.372,8.619,4.46C8.591,4.479,8.563,4.496,8.537,4.517
			c-0.544,0.406-0.952,0.978-1.26,1.578c-0.375,0.732-0.613,1.55-0.737,2.35C6.459,8.965,6.423,9.487,6.423,10
			c0,0.514,0.036,1.034,0.116,1.557c0.124,0.799,0.363,1.614,0.737,2.348c0.283,0.556,0.655,1.082,1.139,1.48
			c0.155-0.166,0.3-0.343,0.432-0.523c-0.046-0.064-0.091-0.129-0.135-0.193c-0.773-1.146-1.144-2.521-1.239-3.895
			C7.456,10.518,7.448,10.26,7.447,10c0-0.261,0.008-0.519,0.026-0.775c0.095-1.37,0.465-2.745,1.239-3.893
			c0.097-0.146,0.201-0.286,0.312-0.423C9.151,4.753,9.286,4.601,9.43,4.46c0.153-0.15,0.317-0.288,0.49-0.413
			c0.014-0.01,0.028-0.021,0.041-0.031V4C9.64,4.008,9.319,4.091,9.024,4.226"/>
		<path fill="#E30613" d="M6.662,4.517c-0.544,0.406-0.953,0.977-1.26,1.578c-0.375,0.732-0.614,1.55-0.737,2.35
			C4.584,8.965,4.548,9.487,4.549,10l0,0c0,0.514,0.036,1.034,0.117,1.557c0.124,0.799,0.363,1.614,0.737,2.348
			c0.307,0.602,0.715,1.172,1.259,1.578C7.068,15.787,7.576,15.986,8.087,16v-0.016c-0.496-0.346-0.916-0.82-1.249-1.315
			C6.065,13.52,5.694,12.146,5.6,10.773C5.581,10.518,5.572,10.26,5.572,10c0-0.261,0.009-0.519,0.027-0.775
			c0.094-1.37,0.465-2.745,1.238-3.893C7.17,4.836,7.59,4.361,8.087,4.016V4l0,0C7.577,4.013,7.067,4.213,6.662,4.517"/>
		<path fill="#E30613" d="M10.291,15.385c0.155-0.166,0.299-0.343,0.432-0.523c-0.047-0.064-0.092-0.129-0.135-0.192
			c-0.048-0.071-0.09-0.146-0.134-0.217c-0.146,0.222-0.31,0.433-0.492,0.626C10.065,15.188,10.174,15.289,10.291,15.385"/>
		<path fill="#E30613" d="M11.305,15.54c-0.127,0.088-0.264,0.168-0.404,0.233c0.293,0.136,0.615,0.218,0.937,0.227l0,0v-0.018
			C11.648,15.852,11.471,15.702,11.305,15.54"/>
		<path fill="#E30613" d="M9.785,15.986c0.05-0.006,0.101-0.014,0.151-0.021c-0.051-0.037-0.102-0.072-0.151-0.113
			c-0.124-0.097-0.242-0.201-0.354-0.312c-0.128,0.088-0.263,0.168-0.406,0.233c0.194,0.088,0.399,0.152,0.608,0.19
			C9.683,15.975,9.734,15.98,9.785,15.986 M9.961,15.999v-0.017c-0.009-0.006-0.016-0.014-0.025-0.019
			c-0.05,0.009-0.101,0.017-0.151,0.021C9.843,15.993,9.902,15.997,9.961,15.999z"/>
		<path fill="#E30613" d="M9.633,4.614C9.477,4.78,9.333,4.958,9.202,5.14c0.046,0.063,0.091,0.127,0.134,0.192
			C9.383,5.401,9.425,5.476,9.47,5.549c0.146-0.224,0.309-0.434,0.492-0.627C9.858,4.812,9.749,4.71,9.633,4.614"/>
		<path fill="#E30613" d="M8.618,4.46c0.128-0.088,0.264-0.169,0.406-0.234C8.729,4.091,8.408,4.008,8.087,4l0,0v0.016
			C8.276,4.148,8.452,4.297,8.618,4.46"/>
		<path fill="#E30613" d="M10.898,4.226c-0.193-0.088-0.399-0.153-0.608-0.19c-0.051-0.009-0.102-0.017-0.151-0.022
			C10.08,4.007,10.021,4.001,9.962,4v0.016c0.008,0.006,0.016,0.013,0.025,0.02l0,0c0.051,0.037,0.102,0.073,0.152,0.113
			c0.123,0.096,0.241,0.2,0.354,0.312C10.621,4.372,10.756,4.291,10.898,4.226"/>
	</g>
</g>
<rect x="0.001" y="0.001" fill="#C8032B" width="19.998" height="19.998"/>
<g>
	<path fill="#FFFFFF" d="M9.866,4.231c0-0.087,0.055-0.162,0.14-0.216c0.085,0.054,0.141,0.129,0.141,0.216
		c0,0.084-0.056,0.159-0.141,0.214C9.921,4.391,9.866,4.315,9.866,4.231 M10.123,4.674c-0.073-0.042-0.113-0.129-0.117-0.229
		c0.089-0.049,0.181-0.057,0.257-0.014c0.074,0.043,0.113,0.127,0.117,0.229C10.29,4.707,10.196,4.718,10.123,4.674 M9.89,4.674
		c0.074-0.042,0.113-0.129,0.117-0.229C9.917,4.396,9.823,4.389,9.751,4.432C9.677,4.475,9.638,4.559,9.634,4.661
		C9.724,4.707,9.816,4.718,9.89,4.674 M10.852,4.306c0.018-0.085,0.086-0.147,0.183-0.182c0.071,0.069,0.106,0.157,0.089,0.239
		s-0.085,0.146-0.18,0.181C10.871,4.475,10.832,4.389,10.852,4.306 M11.01,4.794c-0.064-0.059-0.085-0.15-0.066-0.25
		c0.098-0.027,0.191-0.017,0.254,0.04c0.062,0.059,0.084,0.15,0.064,0.248C11.165,4.861,11.072,4.849,11.01,4.794 M10.781,4.743
		c0.082-0.025,0.139-0.1,0.162-0.199c-0.078-0.064-0.168-0.092-0.246-0.068c-0.085,0.028-0.139,0.103-0.164,0.202
		C10.611,4.741,10.701,4.77,10.781,4.743 M11.803,4.578c0.037-0.077,0.116-0.125,0.215-0.139c0.059,0.083,0.077,0.177,0.043,0.254
		c-0.035,0.076-0.117,0.126-0.217,0.139C11.788,4.749,11.768,4.658,11.803,4.578 M11.645,4.995c0.086-0.009,0.156-0.071,0.199-0.163
		c-0.061-0.08-0.145-0.127-0.229-0.118c-0.085,0.011-0.154,0.072-0.197,0.163C11.48,4.957,11.562,5,11.645,4.995 M9.141,4.306
		c-0.016-0.085-0.083-0.147-0.18-0.182C8.887,4.193,8.851,4.281,8.868,4.363C8.886,4.445,8.955,4.51,9.05,4.544
		C9.123,4.475,9.16,4.389,9.141,4.306 M8.982,4.794c0.063-0.059,0.084-0.15,0.066-0.25c-0.096-0.027-0.19-0.017-0.253,0.04
		C8.731,4.643,8.712,4.734,8.73,4.832C8.826,4.861,8.919,4.849,8.982,4.794 M9.212,4.743c-0.083-0.025-0.137-0.1-0.163-0.199
		c0.077-0.064,0.168-0.092,0.248-0.068c0.081,0.028,0.137,0.103,0.16,0.202C9.381,4.741,9.292,4.77,9.212,4.743 M8.188,4.578
		C8.155,4.501,8.074,4.453,7.972,4.439c-0.057,0.083-0.075,0.177-0.04,0.254C7.968,4.77,8.045,4.819,8.147,4.832
		C8.205,4.749,8.224,4.658,8.188,4.578 M8.348,4.995C8.262,4.986,8.192,4.924,8.147,4.832c0.062-0.08,0.144-0.127,0.229-0.118
		C8.46,4.725,8.533,4.786,8.576,4.877C8.514,4.957,8.432,5,8.348,4.995 M9.773,2.416c0-0.128,0.101-0.23,0.229-0.23
		c0.126,0,0.229,0.103,0.229,0.23c0,0.126-0.104,0.229-0.229,0.229C9.875,2.645,9.773,2.542,9.773,2.416 M8.344,5.271l0.189,0.285
		c0.428-0.198,0.937-0.33,1.466-0.33c0.536,0,1.041,0.132,1.47,0.33l0.188-0.285c-0.482-0.232-1.047-0.368-1.651-0.368
		C9.402,4.903,8.832,5.037,8.344,5.271 M8.647,3.484c-0.066-0.02-0.133-0.03-0.202-0.03c-0.303,0-0.544,0.184-0.544,0.406
		c0,0.106,0.055,0.203,0.141,0.277L7.803,4.375c-0.15-0.134-0.241-0.314-0.241-0.513c0-0.413,0.394-0.747,0.884-0.747
		c0.125,0,0.246,0.022,0.356,0.065c0.159-0.186,0.419-0.304,0.709-0.304c0.18,0,0.348,0.044,0.487,0.123
		c0.141-0.079,0.31-0.123,0.488-0.123c0.292,0,0.55,0.118,0.71,0.304c0.109-0.043,0.23-0.065,0.359-0.065
		c0.486,0,0.883,0.334,0.883,0.747c0,0.198-0.096,0.379-0.244,0.513l-0.237-0.237c0.087-0.074,0.141-0.171,0.141-0.277
		c0-0.223-0.243-0.406-0.542-0.406c-0.072,0-0.139,0.011-0.203,0.03c0.01,0.046,0.014,0.091,0.014,0.139
		c0,0.147-0.049,0.287-0.138,0.404l-0.243-0.244c0.029-0.051,0.043-0.104,0.043-0.16c0-0.228-0.242-0.408-0.542-0.408
		c-0.114,0-0.223,0.028-0.311,0.074v0.49h-0.34V3.298C9.748,3.245,9.634,3.215,9.51,3.215c-0.298,0-0.541,0.181-0.541,0.408
		c0,0.057,0.016,0.109,0.042,0.16L8.768,4.027C8.68,3.91,8.632,3.771,8.632,3.623C8.632,3.575,8.636,3.53,8.647,3.484 M9.781,17.113
		c0-0.12,0.099-0.219,0.22-0.219c0.122,0,0.218,0.099,0.218,0.219c0,0.123-0.096,0.22-0.218,0.22
		C9.88,17.333,9.781,17.236,9.781,17.113 M3.892,11.227c0-0.123,0.1-0.219,0.219-0.219c0.122,0,0.22,0.096,0.22,0.219
		c0,0.12-0.099,0.22-0.22,0.22C3.992,11.446,3.892,11.347,3.892,11.227 M15.669,11.227c0-0.123,0.098-0.219,0.219-0.219
		c0.12,0,0.221,0.096,0.221,0.219c0,0.12-0.101,0.22-0.221,0.22C15.767,11.446,15.669,11.347,15.669,11.227 M9.923,11.148H8.845
		V9.806h1.079V11.148z M8.845,7.422l1.079-1.075v2.92H8.845V7.422z M5.122,11.148l3.184-3.188v1.306H7.004L6.466,9.806h1.839v1.343
		H5.122z M14.88,11.302l-3.722,3.725l-1.08,1.076v-2.919h1.08v1.843l0.54-0.542v-1.301h1.3l0.541-0.539h-1.841v-1.343H14.88z
		 M10.079,11.302h1.08v1.343h-1.08V11.302z M9.382,15.564v-4.263h0.541v4.801L9.382,15.564z M8.306,14.488v-3.187h0.539v3.725
		L8.306,14.488z M7.227,13.409v-2.107h0.541v2.646L7.227,13.409z M6.149,12.33v-1.028h0.54v1.566L6.149,12.33z M5.122,11.302h0.49
		v0.49L5.122,11.302z M10.617,6.885v4.264h-0.539V6.347L10.617,6.885z M11.695,7.963v3.186h-0.537V7.425L11.695,7.963z
		 M12.775,9.042v2.106h-0.539V8.502L12.775,9.042z M13.852,10.12v1.028h-0.538V9.58L13.852,10.12z M14.88,11.148h-0.485v-0.489
		L14.88,11.148z M15.397,11.224c0,0-0.595,1.067-2.433,2.907C11.1,15.993,9.999,16.62,9.999,16.62s-1.067-0.594-2.906-2.435
		c-1.865-1.863-2.491-2.962-2.491-2.962s0.597-1.067,2.435-2.906c1.864-1.862,2.962-2.488,2.962-2.488s1.069,0.592,2.907,2.432
		C14.77,10.124,15.397,11.224,15.397,11.224 M9.999,16.544l5.321-5.32L9.999,5.902l-5.321,5.321L9.999,16.544z M15.397,11.224
		c0,0-0.595,1.067-2.433,2.907C11.1,15.993,9.999,16.62,9.999,16.62s-1.067-0.594-2.906-2.435c-1.865-1.863-2.491-2.962-2.491-2.962
		s0.597-1.067,2.435-2.906c1.864-1.862,2.962-2.488,2.962-2.488s1.069,0.592,2.907,2.432C14.77,10.124,15.397,11.224,15.397,11.224
		 M9.999,16.544l5.321-5.32L9.999,5.902l-5.321,5.321L9.999,16.544z"/>
</g>
</svg>
