<?xml version="1.0" encoding="UTF-8" standalone="no"?>
<svg width="20px" height="20px" viewBox="0 0 20 20" version="1.1" xmlns="http://www.w3.org/2000/svg" xmlns:xlink="http://www.w3.org/1999/xlink">
    <!-- Generator: Sketch 49.2 (51160) - http://www.bohemiancoding.com/sketch -->
    <title>icons/positive-dark/perimeter</title>
    <desc>Created with Sketch.</desc>
    <defs></defs>
    <g id="icons/positive-dark/perimeter" stroke="none" stroke-width="1" fill="none" fill-rule="evenodd">
        <path d="M2.0049,1.9951 L4.9999,1.9951 L4.9999,0.0051 L2.0049,0.0051 C0.9049,0.0051 0.0049,0.9051 0.0049,2.0051 L0.0049,5.0001 L2.0049,5.0001 L2.0049,1.9951 Z" id="Fill-3" fill="#383D4C"></path>
        <path d="M2.0049,18.0098 L4.9999,18.0098 L4.9999,19.9998 L2.0049,19.9998 C0.9049,19.9998 0.0049,19.0998 0.0049,17.9998 L0.0049,14.9998 L2.0049,14.9998 L2.0049,18.0098 Z" id="Fill-5" fill="#383D4C"></path>
        <polygon id="Fill-7" fill="#383D4C" points="0.004 9 2.004 9 2.004 7 0.004 7"></polygon>
        <polygon id="Fill-9" fill="#383D4C" points="7 2 9 2 9 0 7 0"></polygon>
        <polygon id="Fill-10" fill="#383D4C" points="11 2 13 2 13 0 11 0"></polygon>
        <polygon id="Fill-11" fill="#383D4C" points="7 20 9 20 9 18 7 18"></polygon>
        <polygon id="Fill-12" fill="#383D4C" points="11 20 13 20 13 18 11 18"></polygon>
        <polygon id="Fill-13" fill="#383D4C" points="0.004 12.995 2.004 12.995 2.004 10.995 0.004 10.995"></polygon>
        <path d="M17.9951,1.9951 L15.0001,1.9951 L15.0001,0.0051 L17.9951,0.0051 C19.0951,0.0051 19.9951,0.9051 19.9951,2.0051 L19.9951,5.0001 L17.9951,5.0001 L17.9951,1.9951 Z" id="Fill-14" fill="#383D4C"></path>
        <path d="M17.9951,18.0098 L15.0001,18.0098 L15.0001,19.9998 L17.9951,19.9998 C19.0951,19.9998 19.9951,19.0998 19.9951,17.9998 L19.9951,14.9998 L17.9951,14.9998 L17.9951,18.0098 Z" id="Fill-15" fill="#383D4C"></path>
        <polygon id="Fill-16" fill="#383D4C" points="17.996 9 19.996 9 19.996 7 17.996 7"></polygon>
        <polygon id="Fill-17" fill="#383D4C" points="17.996 12.995 19.996 12.995 19.996 10.995 17.996 10.995"></polygon>
        <path d="M9,11.5 C7.622,11.5 6.5,10.378 6.5,9 C6.5,7.622 7.622,6.5 9,6.5 C10.378,6.5 11.5,7.622 11.5,9 C11.5,10.378 10.378,11.5 9,11.5 Z M15,14 L12.28,11.281 C12.731,10.633 13,9.849 13,9 C13,6.791 11.209,5 9,5 C6.791,5 5,6.791 5,9 C5,11.209 6.791,13 9,13 C9.849,13 10.633,12.732 11.28,12.281 L14,15 L15,14 Z" id="Fill-3" fill="#383D4C"></path>
    </g>
</svg>