<?xml version="1.0" encoding="UTF-8" standalone="no"?>
<svg width="12px" height="12px" viewBox="0 0 12 12" version="1.1" xmlns="http://www.w3.org/2000/svg" xmlns:xlink="http://www.w3.org/1999/xlink">
    <!-- Generator: Sketch 48.2 (47327) - http://www.bohemiancoding.com/sketch -->
    <title>icons/positive-dark/search-s</title>
    <desc>Created with Sketch.</desc>
    <defs></defs>
    <g id="Symbols" stroke="none" stroke-width="1" fill="none" fill-rule="evenodd">
        <g id="icons/positive-dark/search-s" fill="#383D4C">
            <path d="M5,7.5 C3.622,7.5 2.5,6.378 2.5,5 C2.5,3.622 3.622,2.5 5,2.5 C6.378,2.5 7.5,3.622 7.5,5 C7.5,6.378 6.378,7.5 5,7.5 Z M11,10 L8.28,7.281 C8.731,6.633 9,5.849 9,5 C9,2.791 7.209,1 5,1 C2.791,1 1,2.791 1,5 C1,7.209 2.791,9 5,9 C5.849,9 6.633,8.732 7.28,8.281 L10,11 L11,10 Z" id="Fill-3"></path>
        </g>
    </g>
</svg>