<?xml version="1.0" encoding="utf-8"?>
<!-- Generator: Adobe Illustrator 16.0.0, SVG Export Plug-In . SVG Version: 6.00 Build 0)  -->
<!DOCTYPE svg PUBLIC "-//W3C//DTD SVG 1.0//EN" "http://www.w3.org/TR/2001/REC-SVG-20010904/DTD/svg10.dtd">
<svg version="1.0" id="Layer_1" xmlns="http://www.w3.org/2000/svg" xmlns:xlink="http://www.w3.org/1999/xlink" x="0px" y="0px"
	 width="20px" height="20px" viewBox="0 0 20 20" enable-background="new 0 0 20 20" xml:space="preserve">
<g>
	<path fill="#231F20" d="M6.339,10.468c-0.074,0.065-0.199,0.139-0.394,0.139c-0.23,0-0.355-0.124-0.355-0.305
		c0-0.186,0.134-0.286,0.435-0.296l0.314-0.01V10.468z M6.943,11c-0.031-0.103-0.041-0.264-0.041-0.578V9.558
		c0-0.573-0.328-0.795-0.869-0.795c-0.29,0-0.563,0.046-0.855,0.24L5.358,9.35c0.139-0.083,0.324-0.162,0.564-0.162
		c0.23,0,0.416,0.105,0.416,0.369v0.055L5.95,9.627C5.392,9.646,5.035,9.89,5.035,10.343c0,0.431,0.314,0.702,0.717,0.702
		c0.29,0,0.489-0.11,0.633-0.239L6.478,11H6.943z"/>
	<path fill="#231F20" d="M8.307,11.045c-0.712,0-1.076-0.512-1.076-1.127c0-0.666,0.48-1.155,1.132-1.155
		c0.296,0,0.499,0.074,0.624,0.152L8.978,9.368c-0.153-0.115-0.323-0.18-0.55-0.18c-0.375,0-0.644,0.296-0.644,0.702
		c0,0.374,0.204,0.708,0.639,0.708c0.208,0,0.365-0.064,0.518-0.152l0.139,0.364C8.903,10.931,8.607,11.045,8.307,11.045"/>
	<path fill="#231F20" d="M10.275,11.045c-0.712,0-1.076-0.512-1.076-1.127c0-0.666,0.48-1.155,1.132-1.155
		c0.295,0,0.498,0.074,0.623,0.152l-0.009,0.453c-0.152-0.115-0.323-0.18-0.55-0.18c-0.374,0-0.643,0.296-0.643,0.702
		c0,0.374,0.204,0.708,0.638,0.708c0.208,0,0.366-0.064,0.518-0.152l0.14,0.364C10.871,10.931,10.576,11.045,10.275,11.045"/>
	<path fill="#231F20" d="M11.663,8.477c-0.189,0-0.342-0.148-0.342-0.338c0-0.18,0.152-0.333,0.342-0.333
		c0.193,0,0.346,0.148,0.346,0.333S11.856,8.477,11.663,8.477 M11.386,8.813h0.555V11h-0.555V8.813z"/>
	<path fill="#231F20" d="M13.898,9.903c0,0.412-0.176,0.712-0.522,0.712c-0.337,0-0.536-0.286-0.536-0.712
		c0-0.407,0.171-0.702,0.522-0.702C13.704,9.202,13.898,9.483,13.898,9.903 M14.467,9.899c0-0.333-0.103-0.62-0.292-0.823
		c-0.193-0.199-0.466-0.314-0.804-0.314c-0.318,0-0.581,0.115-0.776,0.31c-0.203,0.208-0.318,0.503-0.318,0.846
		c0,0.351,0.12,0.651,0.338,0.855c0.189,0.176,0.448,0.271,0.753,0.271c0.328,0,0.595-0.114,0.79-0.314
		C14.36,10.527,14.467,10.232,14.467,9.899"/>
	<path fill="#231F20" d="M16.228,10.999V9.715c0-0.227-0.042-0.477-0.325-0.477c-0.193,0-0.383,0.102-0.554,0.231v1.529h-0.554
		V8.814h0.472l0.06,0.235c0.235-0.176,0.471-0.287,0.767-0.287c0.334,0,0.688,0.199,0.688,0.786v1.45H16.228z"/>
	<path fill="#231F20" d="M18.395,10.468c-0.075,0.065-0.199,0.139-0.393,0.139c-0.231,0-0.356-0.124-0.356-0.305
		c0-0.186,0.134-0.286,0.436-0.296l0.313-0.01V10.468z M19,11c-0.032-0.103-0.042-0.264-0.042-0.578V9.558
		c0-0.573-0.328-0.795-0.868-0.795c-0.292,0-0.564,0.046-0.855,0.24l0.18,0.347c0.14-0.083,0.324-0.162,0.564-0.162
		c0.23,0,0.416,0.105,0.416,0.369v0.055l-0.389,0.014c-0.559,0.019-0.915,0.263-0.915,0.716c0,0.431,0.314,0.702,0.717,0.702
		c0.291,0,0.489-0.11,0.634-0.239L18.532,11H19z"/>
	<path fill="#EC1C24" d="M4.089,9.985C4.049,9.822,4.011,9.661,3.976,9.5c-0.064-0.294-0.116-0.584-0.14-0.875
		C3.829,8.544,3.825,8.468,3.822,8.39C3.817,8.266,3.815,8.147,3.817,8.034c0.004-0.2,0.019-0.386,0.04-0.554
		c0.028-0.219,0.074-0.405,0.108-0.564c-0.035,0.027-0.07,0.054-0.105,0.08C3.82,7.113,3.772,7.277,3.729,7.483
		C3.698,7.622,3.67,7.781,3.647,7.956c-0.164-0.068-0.324-0.152-0.47-0.251l0.004,0.229c0.138,0.113,0.285,0.218,0.436,0.311
		C3.597,8.503,3.59,8.79,3.608,9.105c0.006,0.099,0.015,0.197,0.023,0.294C3.316,9.312,2.983,9.18,2.701,8.989l0.004,0.228
		c0.301,0.25,0.647,0.452,0.978,0.59c0.046,0.328,0.105,0.653,0.159,0.983c-0.431-0.058-1.012-0.215-1.463-0.521l0.004,0.229
		c0.479,0.397,1.071,0.672,1.531,0.765c0.095,0.687,0.134,1.407-0.033,2.236l0.537-0.315C4.626,12.009,4.333,10.975,4.089,9.985"/>
	<path fill="#EC1C24" d="M3.497,12.219c-0.691-0.013-2.001-0.69-2.448-1.64c0,0-0.034-0.075-0.049-0.104
		c0.02-0.027,0.067-0.096,0.067-0.096c0.157-0.222,0.346-0.594,0.346-1.106c0-0.156-0.027-0.343-0.083-0.568
		c0,0-0.023-0.096-0.033-0.135c0.034-0.022,0.116-0.078,0.116-0.078c0.293-0.195,0.798-0.665,0.872-1.62
		c0,0,0.008-0.112,0.012-0.157c0.045-0.006,0.156-0.023,0.156-0.023c0.302-0.046,0.881-0.194,1.385-0.682
		c0,0,0.095-0.091,0.136-0.132c0.042,0.041,0.136,0.132,0.136,0.132c0.504,0.488,1.084,0.636,1.386,0.682
		c0,0,0.11,0.017,0.156,0.023c0,0.045,0,0.158,0,0.158c0.006,0.715,0.321,1.007,0.445,1.094C6.056,8.002,6.009,8.042,5.985,8.062
		C5.682,7.941,5.319,7.67,5.271,7.057c-0.322-0.07-0.812-0.239-1.27-0.619L3.975,6.405L3.948,6.438C3.49,6.818,3.01,6.98,2.687,7.05
		L2.658,7.056L2.654,7.085c-0.12,0.877-0.552,1.377-0.893,1.643L1.741,8.744l0.005,0.025c0.043,0.21,0.063,0.37,0.063,0.503
		c0,0.434-0.113,0.838-0.337,1.202L1.46,10.495l0.013,0.022C1.441,11.203,2.958,12.08,3.484,12.1L3.497,12.219z"/>
</g>
</svg>
