<?xml version="1.0" encoding="UTF-8" standalone="no"?>
<svg width="80px" height="69px" viewBox="0 0 80 69" version="1.1" xmlns="http://www.w3.org/2000/svg" xmlns:xlink="http://www.w3.org/1999/xlink">
    <!-- Generator: Sketch 47.1 (45422) - http://www.bohemiancoding.com/sketch -->
    <title>logos/vf-vertical</title>
    <desc>Created with Sketch.</desc>
    <defs>
        <polygon id="path-1" points="0.0002 0 48 0 48 48 0.0002 48"></polygon>
    </defs>
    <g id="Symbols" stroke="none" stroke-width="1" fill="none" fill-rule="evenodd">
        <g id="logos/vf-vertical">
            <g id="Group-3">
                <g id="Group-2">
                    <g id="Group" transform="translate(0.000000, 54.000000)" fill="#E21013">
                        <polygon id="Fill-1" points="7.50988142 4 5.09805412 10.6384744 2.60793554 4 0 4 3.99209486 14 6.12648221 14 10 4"></polygon>
                        <path d="M15.7633793,12.2070345 C16.2035517,12.2347931 16.5747241,12.1277241 16.8768966,11.8874138 C17.179069,11.6471034 17.4162069,11.3623793 17.5883103,11.0324483 C17.7604138,10.7025172 17.8801724,10.3614828 17.9491724,10.010931 C18.0181724,9.66037931 18.0387931,9.382 18.0110345,9.1757931 C18.0110345,8.61268966 17.9285517,8.13444828 17.7635862,7.74265517 C17.5986207,7.35086207 17.3995517,7.0352069 17.1655862,6.79410345 C16.9316207,6.5537931 16.6841724,6.38486207 16.4232414,6.28889655 C16.1623103,6.19293103 15.9418276,6.15168966 15.7633793,6.16517241 C15.186,6.16517241 14.7053793,6.37217241 14.319931,6.7837931 C14.1272069,6.99 13.9796897,7.20334483 13.8765862,7.42303448 C13.7734828,7.64272414 13.6941724,7.86003448 13.6394483,8.07258621 C13.5847241,8.28593103 13.5498276,8.48896552 13.5363448,8.68089655 C13.5228621,8.87362069 13.5157241,9.03858621 13.5157241,9.1757931 C13.5157241,9.60248276 13.5641034,9.99744828 13.660069,10.3614828 C13.7560345,10.7263103 13.8972069,11.0451379 14.0827931,11.3203448 C14.2683793,11.5955517 14.5023448,11.812069 14.7838966,11.9698966 C15.0654483,12.1277241 15.3922069,12.2070345 15.7633793,12.2070345 M15.7633793,14.4134483 C14.9663103,14.4134483 14.2683793,14.2619655 13.6703793,13.9597931 C13.0723793,13.6576207 12.5774828,13.2586897 12.1856897,12.7637931 C11.7938966,12.2688966 11.498069,11.7089655 11.299,11.0832069 C11.099931,10.4582414 11,9.82217241 11,9.1757931 C11,8.17251724 11.2196897,7.24458621 11.6598621,6.392 C12.1135172,5.5402069 12.7115172,4.92793103 13.4538621,4.55675862 C14.1962069,4.18558621 14.9663103,4 15.7633793,4 C16.8768966,4 17.8183103,4.30217241 18.5884138,4.90731034 C19.3442414,5.49896552 19.8534138,6.20006897 20.1143448,7.01062069 C20.3895517,7.8632069 20.5267586,8.58493103 20.5267586,9.1757931 C20.5267586,10.179069 20.299931,11.1141379 19.8462759,11.9802069 C19.5988276,12.4751034 19.303,12.8772069 18.9595862,13.1865172 C18.6161724,13.4958276 18.2584828,13.7432759 17.8873103,13.9288621 C17.5161379,14.1144483 17.1449655,14.2413448 16.7737931,14.3103448 C16.4026207,14.3785517 16.0655517,14.4134483 15.7633793,14.4134483" id="Fill-2"></path>
                        <path d="M25.7427586,11.7744138 C26.0584138,11.7744138 26.382,11.6895517 26.711931,11.5182414 C27.0418621,11.3461379 27.2758276,11.1438966 27.4130345,10.9115172 L27.4130345,6.02044828 C26.8768966,5.82851724 26.4161034,5.73255172 26.0314483,5.73255172 C25.4953103,5.73255172 25.0551379,5.85231034 24.7117241,6.09262069 C24.3683103,6.33213793 24.1002414,6.61606897 23.9075172,6.9452069 C23.7147931,7.27355172 23.591069,7.60268966 23.5363448,7.93103448 C23.4808276,8.26017241 23.4673448,8.50682759 23.4951034,8.6717931 C23.4951034,9.08182759 23.5395172,9.4767931 23.6291379,9.85272414 C23.7187586,10.2302414 23.8559655,10.5585862 24.0415517,10.8393448 C24.2271379,11.1208966 24.4611034,11.3461379 24.7426552,11.5182414 C25.0242069,11.6895517 25.3581034,11.7744138 25.7427586,11.7744138 M25.2272414,13.9808276 C24.5396207,13.9808276 23.9352759,13.8364828 23.4126207,13.5477931 C22.8899655,13.2591034 22.4505862,12.8744483 22.0928966,12.3930345 C21.7352069,11.9124138 21.4639655,11.3556552 21.2783793,10.7227586 C21.0927931,10.0906552 21,9.4307931 21,8.74317241 C21,7.68517241 21.2133448,6.75724138 21.6392414,5.95937931 C21.8732069,5.49224138 22.165069,5.10362069 22.5156207,4.79431034 C22.8661724,4.4857931 23.2302069,4.23755172 23.6085172,4.05196552 C23.9868276,3.86637931 24.3611724,3.73551724 24.7323448,3.66096552 C25.1035172,3.58482759 25.4334483,3.55389655 25.7221379,3.56737931 C26.2035517,3.56737931 26.7666552,3.66334483 27.4130345,3.85606897 L27.4130345,0 L29.9493793,0 L29.9493793,13.7444828 L27.6192414,13.7444828 L27.5161379,12.9815172 C27.2821724,13.2448276 26.9728621,13.4772069 26.5882069,13.6786552 C26.2035517,13.8801034 25.7498966,13.9808276 25.2272414,13.9808276" id="Fill-4"></path>
                        <path d="M36.2176448,11.9797552 C36.5475759,11.9797552 36.8671966,11.9107552 37.1765069,11.7727552 C37.4858172,11.6355483 37.7499207,11.4642379 37.9704034,11.258031 L37.9704034,9.23720345 C37.5714724,9.27844483 37.231231,9.31651379 36.9496793,9.35061724 C36.6673345,9.38551379 36.4508172,9.41565172 36.3001276,9.44341034 C35.7497138,9.55285862 35.368231,9.74241034 35.1556793,10.0104793 C34.9423345,10.2777552 34.8360586,10.5704103 34.8360586,10.8868586 C34.8360586,11.2167897 34.9558172,11.4808931 35.1969207,11.6807552 C35.437231,11.8798241 35.7774724,11.9797552 36.2176448,11.9797552 M35.6196448,14.1036862 C35.1929552,14.1036862 34.7845069,14.0315138 34.3927138,13.8863759 C34.0009207,13.7428241 33.6535414,13.5366172 33.351369,13.2685483 C33.0484034,12.9996862 32.8049207,12.6697552 32.6193345,12.2787552 C32.4337483,11.8869621 32.3409552,11.4428241 32.3409552,10.9479276 C32.3131966,10.4117897 32.4194724,9.94782414 32.6605759,9.55603103 C32.9008862,9.16423793 33.2030586,8.8343069 33.5678862,8.56623793 C33.9319207,8.29816897 34.3237138,8.09275517 34.7432655,7.94841034 C35.1620241,7.80327241 35.5435069,7.71047931 35.8877138,7.66923793 C35.9836793,7.65654828 36.203369,7.62878966 36.5475759,7.58754828 C36.8909897,7.54551379 37.3581276,7.49158276 37.9497828,7.42258276 L37.9497828,7.27744483 C37.9497828,6.72861724 37.8086103,6.33682414 37.5270586,6.10285862 C37.2447138,5.8688931 36.8568862,5.75151379 36.3619897,5.75151379 C35.8670931,5.75151379 35.3928172,5.85858276 34.9391621,6.07192759 C34.4855069,6.28447931 34.1413,6.49465172 33.9081276,6.70085862 L33.0626793,4.90685862 C33.351369,4.61816897 33.8875069,4.34296207 34.6710931,4.08203103 C35.069231,3.94403103 35.444369,3.84092759 35.7949207,3.77192759 C36.1454724,3.70372069 36.4785759,3.67596207 36.7950241,3.69023793 C37.4271276,3.67596207 37.9807138,3.76875517 38.4549897,3.96782414 C38.9292655,4.16768621 39.3210586,4.4428931 39.630369,4.79265172 C39.9396793,5.14399655 40.1696793,5.55244483 40.3211621,6.01958276 C40.4718517,6.48751379 40.5408517,6.97527241 40.527369,7.48444483 L40.527369,13.8768586 L38.1766103,13.8768586 L38.0735069,13.1345138 C37.7983,13.4366862 37.4477483,13.6738241 37.0218517,13.8459276 C36.5951621,14.0172379 36.1280241,14.1036862 35.6196448,14.1036862" id="Fill-6"></path>
                        <path d="M43.3197241,14.022069 L43.3197241,6.14496552 L42,6.14496552 L42,4.08289655 L43.3197241,4.08289655 L43.3197241,3.54675862 C43.3197241,2.58472414 43.518,1.82175862 43.9177241,1.25786207 C44.3015862,0.680482759 44.7560345,0.329931034 45.2778966,0.206206897 C45.7735862,0.069 46.2129655,0 46.5976207,0 C47.2162414,0 47.7285862,0.0586896552 48.1338621,0.175275862 C48.539931,0.291862069 48.777069,0.371172414 48.8452759,0.412413793 L48.5573793,2.53634483 C48.4748966,2.49510345 48.3123103,2.4372069 48.072,2.36106897 C47.8316897,2.28572414 47.5112759,2.24765517 47.1131379,2.24765517 C46.7554483,2.24765517 46.4564483,2.35393103 46.2161379,2.56727586 C45.9758276,2.78062069 45.8552759,3.128 45.8552759,3.60862069 L45.8552759,4.08289655 L47.9998276,4.08289655 L47.9998276,6.14496552 L45.8758966,6.14496552 L45.8758966,14.022069 L43.3197241,14.022069 Z" id="Fill-9"></path>
                        <path d="M52.7633793,12.2070345 C53.2035517,12.2347931 53.573931,12.1277241 53.8768966,11.8874138 C54.179069,11.6471034 54.4162069,11.3623793 54.5883103,11.0324483 C54.7604138,10.7025172 54.8801724,10.3614828 54.9491724,10.010931 C55.0173793,9.66037931 55.038,9.382 55.0110345,9.1757931 C55.0110345,8.61268966 54.9285517,8.13444828 54.7627931,7.74265517 C54.5986207,7.35086207 54.3995517,7.0352069 54.1655862,6.79410345 C53.9316207,6.5537931 53.6833793,6.38486207 53.4232414,6.28889655 C53.1615172,6.19293103 52.9418276,6.15168966 52.7633793,6.16517241 C52.1852069,6.16517241 51.7045862,6.37217241 51.319931,6.7837931 C51.1272069,6.99 50.9796897,7.20334483 50.8765862,7.42303448 C50.7726897,7.64272414 50.6941724,7.86003448 50.6394483,8.07258621 C50.583931,8.28593103 50.5498276,8.48896552 50.5355517,8.68089655 C50.522069,8.87362069 50.5157241,9.03858621 50.5157241,9.1757931 C50.5157241,9.60248276 50.5641034,9.99744828 50.660069,10.3614828 C50.7560345,10.7263103 50.8964138,11.0451379 51.0827931,11.3203448 C51.2683793,11.5955517 51.5015517,11.812069 51.7838966,11.9698966 C52.0646552,12.1277241 52.3914138,12.2070345 52.7633793,12.2070345 M52.7633793,14.4134483 C51.9655172,14.4134483 51.2683793,14.2619655 50.6703793,13.9597931 C50.0723793,13.6576207 49.5766897,13.2586897 49.1848966,12.7637931 C48.7931034,12.2688966 48.4972759,11.7089655 48.299,11.0832069 C48.0991379,10.4582414 48,9.82217241 48,9.1757931 C48,8.17251724 48.2196897,7.24458621 48.6598621,6.392 C49.1135172,5.5402069 49.7115172,4.92793103 50.4538621,4.55675862 C51.1954138,4.18558621 51.9655172,4 52.7633793,4 C53.8768966,4 54.8183103,4.30217241 55.5884138,4.90731034 C56.3442414,5.49896552 56.8526207,6.20006897 57.1143448,7.01062069 C57.3887586,7.8632069 57.5267586,8.58493103 57.5267586,9.1757931 C57.5267586,10.179069 57.299931,11.1141379 56.8462759,11.9802069 C56.5988276,12.4751034 56.303,12.8772069 55.9587931,13.1865172 C55.6153793,13.4958276 55.2584828,13.7432759 54.8873103,13.9288621 C54.5161379,14.1144483 54.1449655,14.2413448 53.773,14.3103448 C53.4026207,14.3785517 53.0655517,14.4134483 52.7633793,14.4134483" id="Fill-11"></path>
                        <path d="M59,14.1866207 L59,4.24744828 L61.3301379,4.24744828 L61.4546552,5.03103448 C61.8535862,4.70110345 62.3024828,4.44731034 62.8053103,4.26806897 C63.3065517,4.08962069 63.8117586,4 64.320931,4 C65.118,4 65.7984828,4.17924138 66.3623793,4.53613793 C66.9254828,4.89382759 67.3212414,5.41965517 67.5472759,6.11362069 C67.7741034,6.80758621 67.8883103,7.53962069 67.8883103,8.30972414 L67.8883103,14.1866207 L65.3305517,14.1866207 L65.3305517,8.51593103 C65.3305517,7.75931034 65.1758966,7.17558621 64.8665862,6.76317241 C64.558069,6.35075862 64.1147241,6.14455172 63.5373448,6.14455172 C63.1384138,6.14455172 62.7704138,6.24765517 62.4341379,6.45386207 C62.0962759,6.66006897 61.8052069,6.88689655 61.5577586,7.13434483 L61.5577586,14.1866207 L59,14.1866207 Z" id="Fill-13"></path>
                        <path d="M72.6875897,7.71063793 L76.4611759,7.71063793 C76.4342103,7.29822414 76.3445897,6.96591379 76.1931069,6.71053448 C76.0416241,6.45674138 75.8663483,6.25687931 75.6680724,6.11253448 C75.4682103,5.96898276 75.2723138,5.86905172 75.0803828,5.81353448 C74.8868655,5.75881034 74.7433138,5.73184483 74.6473483,5.73184483 C74.2071759,5.73184483 73.7876241,5.89681034 73.3894862,6.22594828 C72.9897621,6.55587931 72.7565897,7.05077586 72.6875897,7.71063793 M74.8733828,14.1038448 C74.2270034,14.1038448 73.6123483,14.0007414 73.0286241,13.7945345 C72.4433138,13.5875345 71.9317621,13.2687069 71.4915897,12.8348793 C71.0514172,12.4018448 70.7016586,11.8625345 70.4399345,11.2169483 C70.1790034,10.5697759 70.0481414,9.80125862 70.0481414,8.90743103 C70.0481414,8.06832759 70.1686931,7.32677586 70.4090034,6.67960345 C70.6501069,6.03401724 70.9800379,5.49074138 71.3987966,5.05056897 C71.8183483,4.61118966 72.3069,4.27412069 72.8636586,4.04015517 C73.4204172,3.80698276 74.0144517,3.69039655 74.6473483,3.69039655 C75.7608655,3.67612069 76.6681759,3.98622414 77.3684862,4.61832759 C78.0838655,5.23694828 78.5446586,5.96581034 78.7508655,6.80332759 C78.9705552,7.62815517 79.0736586,8.39112069 79.0601759,9.09222414 L79.0601759,9.54587931 L72.6257276,9.54587931 C72.6812448,10.3770517 72.9413828,10.9766379 73.4093138,11.3446379 C73.8772448,11.713431 74.4823828,11.8966379 75.2239345,11.8966379 C75.8837966,11.8966379 76.4611759,11.7959138 76.9568655,11.5944655 C77.450969,11.3938103 77.788831,11.2050517 77.9664862,11.0313621 L78.6477621,13.1132586 C78.3447966,13.3337414 78.0569,13.491569 77.7809,13.5875345 C77.6167276,13.6708103 77.2106586,13.7739138 76.5650724,13.8976379 C76.2486241,13.9658448 75.9456586,14.0173966 75.656969,14.0515 C75.3690724,14.0856034 75.1073483,14.1038448 74.8733828,14.1038448" id="Fill-15"></path>
                    </g>
                    <g id="Logos/vf" transform="translate(16.000000, 0.000000)">
                        <g id="Page-1">
                            <path d="M48,24 C48,37.255 37.255,48 24,48 C10.745,48 0,37.255 0,24 C0,10.745 10.745,0 24,0 C37.255,0 48,10.745 48,24" id="Fill-1" fill="#FFFFFF"></path>
                            <g id="Group-5">
                                <mask id="mask-2" fill="white">
                                    <use xlink:href="#path-1"></use>
                                </mask>
                                <g id="Clip-4"></g>
                                <path d="M34.2842,2.3125 C30.0452,3.3605 26.4002,7.2815 26.4002,11.9675 C26.4002,12.0715 26.4232,12.1905 26.4272,12.2925 C33.2612,13.7945 37.2042,18.5525 37.2042,24.8305 C37.2042,31.8805 31.6222,37.5995 24.8002,37.5995 C17.9772,37.5995 10.8002,31.9235 10.8002,23.2005 C10.8002,12.5485 20.4362,2.3555 33.0222,2.0385 C33.1912,2.0345 33.4342,2.0385 33.6992,2.0465 C30.7322,0.7345 27.4522,-0.0005 24.0002,-0.0005 C10.7452,-0.0005 0.0002,10.7455 0.0002,23.9995 C0.0002,37.2545 10.7452,48.0005 24.0002,48.0005 C37.2552,48.0005 48.0002,37.2545 48.0002,23.9995 C48.0002,14.4265 42.3922,6.1645 34.2842,2.3125" id="Fill-3" fill="#E90000" mask="url(#mask-2)"></path>
                            </g>
                        </g>
                    </g>
                </g>
            </g>
        </g>
    </g>
</svg>