<?xml version="1.0" encoding="UTF-8" standalone="no"?>
<svg width="48px" height="48px" viewBox="0 0 48 48" version="1.1" xmlns="http://www.w3.org/2000/svg" xmlns:xlink="http://www.w3.org/1999/xlink">
    <!-- Generator: Sketch 47.1 (45422) - http://www.bohemiancoding.com/sketch -->
    <title>Logos/vf</title>
    <desc>Created with Sketch.</desc>
    <defs>
        <polygon id="path-1" points="0.0002 0 48 0 48 48 0.0002 48"></polygon>
    </defs>
    <g id="Symbols" stroke="none" stroke-width="1" fill="none" fill-rule="evenodd">
        <g id="Logos/vf">
            <g id="Page-1">
                <path d="M48,24 C48,37.255 37.255,48 24,48 C10.745,48 0,37.255 0,24 C0,10.745 10.745,0 24,0 C37.255,0 48,10.745 48,24" id="Fill-1" fill="#FFFFFF"></path>
                <g id="Group-5">
                    <mask id="mask-2" fill="white">
                        <use xlink:href="#path-1"></use>
                    </mask>
                    <g id="Clip-4"></g>
                    <path d="M34.2842,2.3125 C30.0452,3.3605 26.4002,7.2815 26.4002,11.9675 C26.4002,12.0715 26.4232,12.1905 26.4272,12.2925 C33.2612,13.7945 37.2042,18.5525 37.2042,24.8305 C37.2042,31.8805 31.6222,37.5995 24.8002,37.5995 C17.9772,37.5995 10.8002,31.9235 10.8002,23.2005 C10.8002,12.5485 20.4362,2.3555 33.0222,2.0385 C33.1912,2.0345 33.4342,2.0385 33.6992,2.0465 C30.7322,0.7345 27.4522,-0.0005 24.0002,-0.0005 C10.7452,-0.0005 0.0002,10.7455 0.0002,23.9995 C0.0002,37.2545 10.7452,48.0005 24.0002,48.0005 C37.2552,48.0005 48.0002,37.2545 48.0002,23.9995 C48.0002,14.4265 42.3922,6.1645 34.2842,2.3125" id="Fill-3" fill="#E90000" mask="url(#mask-2)"></path>
                </g>
            </g>
        </g>
    </g>
</svg>