<?xml version="1.0" encoding="UTF-8" standalone="no"?>
<svg width="20px" height="20px" viewBox="0 0 20 20" version="1.1" xmlns="http://www.w3.org/2000/svg" xmlns:xlink="http://www.w3.org/1999/xlink">
    <!-- Generator: Sketch 47.1 (45422) - http://www.bohemiancoding.com/sketch -->
    <title>icons/cepsa-neg</title>
    <desc>Created with Sketch.</desc>
    <defs></defs>
    <g id="Symbols" stroke="none" stroke-width="1" fill="none" fill-rule="evenodd">
        <g id="icons/cepsa-neg" fill="#FFFFFF">
            <g id="Page-1" transform="translate(2.000000, 3.000000)">
                <path d="M7.99522963,5.43561481 C7.85122963,6.1085037 6.83404444,6.81635556 5.9336,6.81635556 L0.98397037,6.81517037 C0.791674074,6.81517037 0.630785185,6.66939259 0.933303704,6.43205926 C1.12441481,6.28183704 2.51700741,5.20628148 2.61626667,5.13131852 C2.79019259,4.99917037 3.00471111,4.92983704 3.24145185,4.92983704 L5.3496,4.92983704 C5.49685926,4.92983704 5.66604444,4.86939259 5.79434074,4.76983704 L8.1016,2.98583704 C8.31404444,2.82257778 8.52974815,2.89931852 8.4773037,3.14939259 L7.99522963,5.43561481 Z" id="Fill-3"></path>
                <path d="M11.0036148,4.63164444 C10.9701333,4.7954963 11.0048,4.93031111 11.3046519,4.93031111 L15.5090963,4.93060741 C15.7013926,4.93060741 15.8622815,5.07668148 15.559763,5.31401481 C15.3689481,5.46364444 13.9793185,6.5392 13.879763,6.61445926 C13.7055407,6.74660741 13.4910222,6.81623704 13.2539852,6.81623704 L10.3689481,6.81653333 C9.36094815,6.81653333 8.56213333,6.17297778 8.7730963,5.18482963 C8.95502222,4.32586667 9.17783704,3.26008889 9.36331852,2.38186667 C9.44539259,1.99579259 9.69872593,1.75194074 9.87857778,1.61208889 L11.5692444,0.3072 C11.7102815,0.202903704 11.9316148,0.23282963 11.8773926,0.484681481 L11.0036148,4.63164444 Z" id="Fill-5"></path>
                <path d="M7.90971852,11.2281481 C7.69816296,11.3911111 7.48186667,11.3146667 7.53431111,11.0648889 L8.01371852,8.78903704 C8.15712593,8.11555556 9.1752,7.408 10.0765333,7.408 L15.0163852,7.40918519 C15.2086815,7.40918519 15.3695704,7.55525926 15.0676444,7.79259259 C14.8765333,7.94251852 13.4839407,9.01807407 13.3843852,9.09303704 C13.2104593,9.22518519 12.9959407,9.29451852 12.7592,9.29451852 L10.6513481,9.29422222 C10.5034963,9.29422222 10.3349037,9.35585185 10.2063111,9.45481481 L7.90971852,11.2281481 Z" id="Fill-7"></path>
                <path d="M4.43517037,13.9152296 C4.29472593,14.0192296 4.07339259,13.9896 4.12791111,13.7377481 L5.00020741,9.59434074 C5.03368889,9.43048889 5.00020741,9.29448889 4.70005926,9.29448889 L0.490577778,9.29300741 C0.298874074,9.29300741 0.137392593,9.14722963 0.439911111,8.9096 C0.631022222,8.75967407 2.02302222,7.68441481 2.12287407,7.60885926 C2.2968,7.47700741 2.51102222,7.40797037 2.74835556,7.40797037 L5.64020741,7.40826667 C6.64820741,7.40826667 7.44613333,8.05122963 7.23665185,9.04026667 C7.05502222,9.8853037 6.6245037,11.9330074 6.6245037,11.9330074 C6.54361481,12.3187852 6.20168889,12.5528593 6.00791111,12.7016 L4.43517037,13.9152296 Z" id="Fill-9"></path>
            </g>
        </g>
    </g>
</svg>