<?xml version="1.0" encoding="UTF-8" standalone="no"?>
<svg width="20px" height="20px" viewBox="0 0 20 20" version="1.1" xmlns="http://www.w3.org/2000/svg" xmlns:xlink="http://www.w3.org/1999/xlink">
    <!-- Generator: Sketch 48.2 (47327) - http://www.bohemiancoding.com/sketch -->
    <title>icons/vodafone-neg</title>
    <desc>Created with Sketch.</desc>
    <defs></defs>
    <g id="Symbols" stroke="none" stroke-width="1" fill="none" fill-rule="evenodd">
        <g id="icons/vodafone-neg" fill="#FFFFFF">
            <g id="Page-1" transform="translate(1.000000, 1.000000)">
                <path d="M18,8.9995 C18,13.9705 13.971,17.9995 9,17.9995 C4.029,17.9995 0,13.9705 0,8.9995 C0,4.0295 4.029,-0.0005 9,-0.0005 C13.971,-0.0005 18,4.0295 18,8.9995 Z M9.0713,14.0181 C12.1253,14.0081 13.9303,11.5011 13.9233,9.2131 C13.9153,6.9251 12.6723,5.2721 9.9303,4.6051 C9.9253,4.5761 9.9203,4.5151 9.9203,4.4581 C9.9143,2.7291 11.2173,1.2051 12.8553,0.8651 C12.7013,0.8131 12.4493,0.7931 12.2083,0.7931 C10.3353,0.8001 8.2693,1.6011 6.7613,2.8491 C5.2173,4.1291 4.0073,6.2871 4.0143,8.5281 C4.0263,11.9161 6.5983,14.0271 9.0713,14.0181 Z" id="Combined-Shape"></path>
            </g>
        </g>
    </g>
</svg>