<?xml version="1.0" encoding="UTF-8" standalone="no"?>
<svg width="20px" height="20px" viewBox="0 0 20 20" version="1.1" xmlns="http://www.w3.org/2000/svg" xmlns:xlink="http://www.w3.org/1999/xlink">
    <!-- Generator: Sketch 48.2 (47327) - http://www.bohemiancoding.com/sketch -->
    <title>icons/neighborhood-sel</title>
    <desc>Created with Sketch.</desc>
    <defs></defs>
    <g id="Symbols" stroke="none" stroke-width="1" fill="none" fill-rule="evenodd">
        <g id="icons/neighborhood-sel">
            <polygon id="Fill-3" fill="#E60000" points="7 13 7 7 11.391 7 13.491 13"></polygon>
            <polygon id="Fill-4" fill="#AEB1B9" points="1 13 5 13 5 7 1 7"></polygon>
            <polygon id="Fill-5" fill="#AEB1B9" points="7.0002 0.9992 7.0002 4.9992 10.6912 4.9992 9.2902 0.9992"></polygon>
            <polygon id="Fill-6" fill="#AEB1B9" points="16.3098 14.9996 17.7098 18.9996 19.0008 18.9996 19.0008 14.9996"></polygon>
            <polygon id="Fill-7" fill="#AEB1B9" points="1.001 5 5.001 5 5.001 0.999 1.001 0.999"></polygon>
            <polygon id="Fill-8" fill="#AEB1B9" points="11.4093 0.9992 12.8093 4.9992 19.0003 4.9992 19.0003 0.9992"></polygon>
            <polygon id="Fill-9" fill="#AEB1B9" points="15.5908 18.999 6.9998 18.999 6.9998 15 14.1908 15"></polygon>
            <polygon id="Fill-10" fill="#AEB1B9" points="1 18.999 5 18.999 5 15 1 15"></polygon>
            <polygon id="Fill-11" fill="#AEB1B9" points="13.5099 7.0004 15.6099 12.9994 19.0009 12.9994 19.0009 7.0004"></polygon>
        </g>
    </g>
</svg>