<?xml version="1.0" standalone="no"?>
<!DOCTYPE svg PUBLIC "-//W3C//DTD SVG 20010904//EN"
 "http://www.w3.org/TR/2001/REC-SVG-20010904/DTD/svg10.dtd">
<svg version="1.0" xmlns="http://www.w3.org/2000/svg"
 width="700.000000pt" height="700.000000pt" viewBox="0 0 700.000000 700.000000"
 preserveAspectRatio="xMidYMid meet">
<metadata>
Created by potrace 1.11, written by Peter Selinger 2001-2013
</metadata>
<g transform="translate(0.000000,700.000000) scale(0.100000,-0.100000)"
fill="#000000" stroke="none">
<path d="M3407 6945 c-1 -2 -61 -5 -132 -9 -72 -3 -141 -8 -155 -11 -14 -3
-63 -10 -110 -15 -47 -6 -92 -13 -100 -15 -8 -2 -28 -7 -45 -10 -74 -13 -91
-16 -107 -21 -9 -3 -25 -7 -35 -9 -223 -45 -518 -151 -758 -272 -464 -233
-835 -535 -1173 -955 -65 -80 -252 -352 -252 -365 0 -5 -11 -25 -25 -45 -26
-39 -127 -236 -170 -333 -91 -206 -188 -512 -220 -697 -3 -18 -10 -51 -15 -73
-16 -71 -40 -276 -47 -400 -31 -536 51 -1035 251 -1525 45 -110 129 -283 184
-380 34 -61 155 -254 162 -260 4 -3 22 -27 40 -55 251 -372 716 -785 1135
-1010 50 -27 108 -58 130 -70 191 -103 620 -251 840 -290 17 -2 41 -7 55 -10
14 -3 39 -7 55 -10 17 -3 41 -7 55 -10 118 -20 396 -40 545 -39 123 1 315 11
356 19 10 2 44 6 76 10 32 3 108 15 168 26 458 81 904 262 1295 524 113 76
269 191 290 214 3 4 39 35 80 71 207 178 502 519 605 698 6 9 27 44 49 76 21
33 40 67 43 75 4 9 12 23 18 31 18 21 126 237 175 349 65 150 163 453 194 605
56 267 79 489 79 738 -1 138 -10 326 -18 367 -2 12 -7 50 -10 84 -3 34 -13 98
-21 142 -9 44 -18 94 -20 110 -3 17 -10 48 -16 70 -5 22 -12 48 -13 57 -8 38
-49 180 -80 274 -67 203 -191 475 -286 631 -23 38 -53 88 -67 113 -14 25 -28
47 -32 50 -4 3 -30 39 -58 81 -148 222 -407 502 -637 690 -78 64 -278 210
-326 238 -13 8 -62 38 -109 66 -47 28 -128 74 -181 100 l-97 49 -99 -33 c-261
-85 -510 -254 -695 -472 -155 -182 -273 -431 -313 -656 -16 -96 -24 -257 -13
-269 4 -3 47 -17 95 -29 889 -226 1439 -888 1445 -1741 1 -106 -10 -292 -17
-304 -2 -4 -7 -29 -10 -56 -9 -63 -49 -215 -81 -307 -93 -263 -270 -531 -475
-722 -30 -28 -83 -73 -119 -100 -36 -28 -67 -52 -70 -55 -17 -17 -177 -112
-243 -143 -146 -70 -340 -134 -462 -152 -22 -3 -65 -9 -95 -14 -56 -9 -398 -8
-435 2 -11 2 -42 8 -70 11 -27 4 -95 18 -150 32 -566 143 -1044 516 -1323
1035 -60 111 -152 344 -166 421 -2 13 -9 41 -14 63 -13 48 -21 87 -28 140 -2
22 -7 50 -10 62 -21 102 -21 439 1 603 30 227 90 463 172 670 339 862 1083
1561 1993 1871 122 42 299 92 390 110 30 5 64 12 75 14 11 3 63 11 115 19 83
14 134 19 280 31 19 2 80 4 135 5 l100 1 -55 25 c-88 40 -398 146 -460 157
-14 3 -43 10 -65 16 -67 18 -286 58 -354 65 -36 4 -67 8 -70 10 -14 8 -465 27
-474 21z"/>
</g>
</svg>
