<?xml version="1.0" encoding="UTF-8" standalone="no"?>
<svg width="20px" height="20px" viewBox="0 0 20 20" version="1.1" xmlns="http://www.w3.org/2000/svg" xmlns:xlink="http://www.w3.org/1999/xlink">
    <!-- Generator: Sketch 47.1 (45422) - http://www.bohemiancoding.com/sketch -->
    <title>logos/marcadona</title>
    <desc>Created with Sketch.</desc>
    <defs></defs>
    <g id="Symbols" stroke="none" stroke-width="1" fill="none" fill-rule="evenodd">
        <g id="logos/marcadona">
            <g id="Page-1" transform="translate(1.000000, 1.000000)">
                <path d="M18,9.002 C18,4.03 13.972,0 9.002,0 C4.03,0 0,4.03 0,9.002 C0,13.972 4.03,18 9.002,18 C13.972,18 18,13.972 18,9.002 M17.37,9.002 C17.37,13.623 13.625,17.373 9.002,17.373 C4.379,17.373 0.63,13.623 0.63,9.002 C0.63,4.38 4.379,0.631 9.002,0.631 C13.625,0.631 17.37,4.38 17.37,9.002" id="Fill-1" fill="#00975E"></path>
                <path d="M4.9067,14.46 C3.9257,14.46 3.8097,14.046 3.8097,13.355 L3.8127,9.464 C3.8127,8.782 4.0897,8.528 4.9117,8.528 L8.6367,8.524 L8.6417,3.395 C8.6457,2.716 9.6117,2.702 9.6117,3.395 L9.6187,8.524 L13.3637,8.528 C14.2957,8.528 14.4437,8.854 14.4437,9.533 C14.4467,9.933 14.4487,13.378 14.4457,13.38 C14.4467,13.883 14.1667,14.46 13.4537,14.46 L4.9067,14.46 Z" id="Fill-3" fill="#FFA200"></path>
                <path d="M12.3652,5.9688 C11.7232,6.0158 10.4512,8.1938 10.4512,8.1938 L10.0122,8.1938 C10.0142,8.1888 9.9822,7.1108 9.9892,6.6818 C9.9892,5.9098 10.1322,5.6528 10.4672,5.5408 C10.8622,5.4068 11.0372,5.7208 11.3882,5.6188 C12.2012,5.2808 12.3652,5.9688 12.3652,5.9688" id="Fill-5" fill="#BFD800"></path>
                <path d="M15.5781,7.1152 C15.3551,7.6122 15.9831,7.7172 15.7611,8.1752 L15.2631,8.7612 C14.8331,9.1892 14.7411,8.2582 14.1611,8.2402 C14.2921,8.0902 14.5221,7.6852 14.5151,7.0182 C14.7791,6.9652 15.3791,6.7022 15.5781,7.1152" id="Fill-7" fill="#BFD800"></path>
                <path d="M4.8604,5.1543 C5.2194,4.8933 5.5434,5.5563 5.8834,5.1633 C6.2484,5.4253 5.9644,6.1323 6.2524,6.4583 C5.9294,6.5233 5.4964,6.6803 5.2334,7.0843 C5.2334,7.0973 4.9794,7.0623 4.7974,7.0153 C4.5184,6.9463 3.7714,6.8663 3.7144,6.6153 C3.6364,6.3583 3.9364,6.1073 3.9324,6.1013 C3.7014,5.9713 3.4624,5.6223 3.5274,5.3843 C3.5664,5.2683 3.6704,5.1263 3.8024,5.0983 C4.2474,4.9803 4.4984,5.4563 4.8604,5.1543" id="Fill-9" fill="#BFD800"></path>
                <path d="M3.4751,6.2119 C3.3161,6.4329 3.2771,6.8329 3.6031,6.9619 C4.2561,7.2059 4.5391,7.2109 5.0731,7.3539 C5.0731,7.3539 4.9991,7.5119 4.9661,7.6759 C4.9651,7.6859 3.5921,7.2359 2.6161,7.9019 C2.2491,8.1859 1.8501,7.9719 1.9431,7.5799 C1.9621,7.1849 1.4271,7.3319 1.4471,6.9189 C1.4371,6.3819 2.1341,6.6609 2.2851,6.2949 C2.4951,5.5949 3.2521,5.9469 3.4751,6.2119" id="Fill-11" fill="#00975E"></path>
                <path d="M4.9058,7.9473 C4.8898,8.1363 4.9058,8.2253 4.9058,8.2253 C4.1708,8.2073 3.5888,8.2853 2.9658,8.8163 C2.7158,9.0973 2.3948,8.8283 2.5558,8.5273 C3.0598,7.6303 4.9058,7.9473 4.9058,7.9473" id="Fill-13" fill="#BFD800"></path>
                <path d="M8.2568,6.6709 C7.8888,6.6529 7.6548,6.7739 7.4798,6.8509 C7.1028,6.5449 6.7918,6.4909 6.5548,6.4879 C6.9268,5.9979 7.6698,5.7949 8.2568,6.1849 L8.2568,6.6709 Z" id="Fill-15" fill="#E63826"></path>
                <path d="M7.1562,7.1084 C6.6882,7.5504 6.6732,8.2064 6.6732,8.2064 L5.2332,8.2064 C5.1242,6.9914 6.4792,6.5104 7.1562,7.1084" id="Fill-17" fill="#E63826"></path>
                <path d="M8.2593,8.207 L7.0283,8.207 C7.0783,7.408 7.9173,7.042 8.2593,7.08 L8.2593,8.207 Z" id="Fill-19" fill="#E63826"></path>
                <path d="M10.8794,8.2109 C11.2164,7.6509 11.7344,6.9389 11.7344,6.9389 C12.3404,6.1739 12.9354,6.2949 13.6044,5.8019 C13.9454,5.5479 14.1274,5.3119 14.2624,4.9869 C14.4484,4.5459 14.6594,4.4409 14.9204,4.6279 C15.2834,4.8869 14.9404,5.2329 14.8444,5.3349 C14.5384,5.6719 14.4104,5.8449 14.2624,6.2169 C14.0374,6.7759 14.2174,7.2779 14.0044,7.7539 C13.9154,7.9469 13.7614,8.1929 13.7334,8.2319 L10.8794,8.2109 Z" id="Fill-21" fill="#99004A"></path>
            </g>
        </g>
    </g>
</svg>