<?xml version="1.0" encoding="UTF-8" standalone="no"?>
<svg width="20px" height="20px" viewBox="0 0 20 20" version="1.1" xmlns="http://www.w3.org/2000/svg" xmlns:xlink="http://www.w3.org/1999/xlink">
    <!-- Generator: Sketch 47.1 (45422) - http://www.bohemiancoding.com/sketch -->
    <title>icons/mercadona-neg</title>
    <desc>Created with Sketch.</desc>
    <defs></defs>
    <g id="Symbols" stroke="none" stroke-width="1" fill="none" fill-rule="evenodd">
        <g id="icons/mercadona-neg" fill="#FFFFFF">
            <g id="Group" transform="translate(2.000000, 3.000000)">
                <path d="M3.8633,12.416 C2.8823,12.416 2.7663,12.002 2.7663,11.311 L2.7693,7.42 C2.7693,6.738 3.0463,6.484 3.8683,6.484 L7.5933,6.48 L7.5983,1.351 C7.6023,0.672 8.5683,0.658 8.5683,1.351 L8.5753,6.48 L12.3203,6.484 C13.2523,6.484 13.4003,6.81 13.4003,7.489 C13.4033,7.889 13.4053,11.334 13.4023,11.336 C13.4033,11.839 13.1233,12.416 12.4103,12.416 L3.8633,12.416 Z" id="Fill-3"></path>
                <path d="M11.3218,3.9248 C10.6798,3.9718 9.4078,6.1498 9.4078,6.1498 L8.9688,6.1498 C8.9708,6.1448 8.9388,5.0668 8.9458,4.6378 C8.9458,3.8658 9.0888,3.6088 9.4238,3.4968 C9.8188,3.3628 9.9938,3.6768 10.3448,3.5748 C11.1578,3.2368 11.3218,3.9248 11.3218,3.9248" id="Fill-5"></path>
                <path d="M14.5347,5.0713 C14.3117,5.5683 14.9397,5.6733 14.7177,6.1313 L14.2197,6.7173 C13.7897,7.1453 13.6977,6.2143 13.1177,6.1963 C13.2487,6.0463 13.4787,5.6413 13.4717,4.9743 C13.7357,4.9213 14.3357,4.6583 14.5347,5.0713" id="Fill-7"></path>
                <path d="M3.8169,3.1104 C4.1759,2.8494 4.4999,3.5124 4.8399,3.1194 C5.2049,3.3814 4.9209,4.0884 5.2089,4.4144 C4.8859,4.4794 4.4529,4.6364 4.1899,5.0404 C4.1899,5.0534 3.9359,5.0184 3.7539,4.9714 C3.4749,4.9024 2.7279,4.8224 2.6709,4.5714 C2.5929,4.3144 2.8929,4.0634 2.8889,4.0574 C2.6579,3.9274 2.4189,3.5784 2.4839,3.3404 C2.5229,3.2244 2.6269,3.0824 2.7589,3.0544 C3.2039,2.9364 3.4549,3.4124 3.8169,3.1104" id="Fill-9"></path>
                <path d="M2.4316,4.168 C2.2726,4.389 2.2336,4.789 2.5596,4.918 C3.2126,5.162 3.4956,5.167 4.0296,5.31 C4.0296,5.31 3.9556,5.468 3.9226,5.632 C3.9216,5.642 2.5486,5.192 1.5726,5.858 C1.2056,6.142 0.8066,5.928 0.8996,5.536 C0.9186,5.141 0.3836,5.288 0.4036,4.875 C0.3936,4.338 1.0906,4.617 1.2416,4.251 C1.4516,3.551 2.2086,3.903 2.4316,4.168" id="Fill-11"></path>
                <path d="M3.8623,5.9033 C3.8463,6.0923 3.8623,6.1813 3.8623,6.1813 C3.1273,6.1633 2.5453,6.2413 1.9223,6.7723 C1.6723,7.0533 1.3513,6.7843 1.5123,6.4833 C2.0163,5.5863 3.8623,5.9033 3.8623,5.9033" id="Fill-13"></path>
                <path d="M7.2134,4.627 C6.8454,4.609 6.6114,4.73 6.4364,4.807 C6.0594,4.501 5.7484,4.447 5.5114,4.444 C5.8834,3.954 6.6264,3.751 7.2134,4.141 L7.2134,4.627 Z" id="Fill-15"></path>
                <path d="M6.1128,5.0645 C5.6448,5.5065 5.6298,6.1625 5.6298,6.1625 L4.1898,6.1625 C4.0808,4.9475 5.4358,4.4665 6.1128,5.0645" id="Fill-17"></path>
                <path d="M7.2158,6.1631 L5.9848,6.1631 C6.0348,5.3641 6.8738,4.9981 7.2158,5.0361 L7.2158,6.1631 Z" id="Fill-19"></path>
                <path d="M9.8359,6.167 C10.1729,5.607 10.6909,4.895 10.6909,4.895 C11.2969,4.13 11.8919,4.251 12.5609,3.758 C12.9019,3.504 13.0839,3.268 13.2189,2.943 C13.4049,2.502 13.6159,2.397 13.8769,2.584 C14.2399,2.843 13.8969,3.189 13.8009,3.291 C13.4949,3.628 13.3669,3.801 13.2189,4.173 C12.9939,4.732 13.1739,5.234 12.9609,5.71 C12.8719,5.903 12.7179,6.149 12.6899,6.188 L9.8359,6.167 Z" id="Fill-21"></path>
            </g>
        </g>
    </g>
</svg>