<?xml version="1.0" encoding="UTF-8" standalone="no"?>
<svg width="12px" height="12px" viewBox="0 0 12 12" version="1.1" xmlns="http://www.w3.org/2000/svg" xmlns:xlink="http://www.w3.org/1999/xlink">
    <!-- Generator: Sketch 47.1 (45422) - http://www.bohemiancoding.com/sketch -->
    <title>icons/positive-clear/chrono-s</title>
    <desc>Created with Sketch.</desc>
    <defs></defs>
    <g id="Symbols" stroke="none" stroke-width="1" fill="none" fill-rule="evenodd">
        <g id="icons/positive-clear/chrono-s" fill="#AEB1B9">
            <path d="M5.5,11 C3.019,11 1,8.981 1,6.5 C1,4.019 3.019,2 5.5,2 C7.981,2 10,4.019 10,6.5 C10,8.981 7.981,11 5.5,11 M6,1.025 L6,1 L7,1 C7.276,1 7.5,0.776 7.5,0.5 C7.5,0.224 7.276,0 7,0 L4,0 C3.724,0 3.5,0.224 3.5,0.5 C3.5,0.776 3.724,1 4,1 L5,1 L5,1.025 C2.196,1.278 0,3.631 0,6.5 C0,9.538 2.461,12 5.5,12 C8.537,12 11,9.538 11,6.5 C11,3.631 8.803,1.278 6,1.025" id="Fill-3"></path>
            <path d="M11.707,1 L11,0.293 C10.609,-0.098 9.977,-0.098 9.586,0.293 L8.939,0.939 L11.061,3.061 L11.707,2.414 C12.098,2.023 12.098,1.391 11.707,1" id="Fill-5"></path>
            <path d="M5.9995,5.6533 L5.9995,3.0013 C5.9995,2.7243 5.7755,2.5013 5.4995,2.5013 C5.2235,2.5013 4.9995,2.7243 4.9995,3.0013 L4.9995,5.6533 C4.7065,5.8283 4.4995,6.1343 4.4995,6.5003 C4.4995,7.0513 4.9485,7.5003 5.4995,7.5003 C6.0505,7.5003 6.4995,7.0513 6.4995,6.5003 C6.4995,6.1343 6.2925,5.8283 5.9995,5.6533" id="Fill-8"></path>
        </g>
    </g>
</svg>