<?xml version="1.0" encoding="UTF-8" standalone="no"?>
<svg width="20px" height="20px" viewBox="0 0 20 20" version="1.1" xmlns="http://www.w3.org/2000/svg" xmlns:xlink="http://www.w3.org/1999/xlink">
    <!-- Generator: Sketch 50.2 (55047) - http://www.bohemiancoding.com/sketch -->
    <title>icons/positive-clear/city</title>
    <desc>Created with Sketch.</desc>
    <defs></defs>
    <g id="icons/positive-clear/city" stroke="none" stroke-width="1" fill="none" fill-rule="evenodd">
        <path d="M3,12 L6,12 L6,11 L3,11 L3,12 Z M3,14 L6,14 L6,13 L3,13 L3,14 Z M3,16 L6,16 L6,15 L3,15 L3,16 Z M2,18 L7,18 L7,10 L2,10 L2,18 Z" id="Fill-3" fill="#AEB1B9"></path>
        <path d="M15,10 L17,10 L17,9 L15,9 L15,10 Z M15,12 L17,12 L17,11 L15,11 L15,12 Z M15,14 L17,14 L17,13 L15,13 L15,14 Z M15,16 L17,16 L17,15 L15,15 L15,16 Z M16,5 L14,7.998 L14,18 L18,18 L18,8 L16,5 Z" id="Fill-4" fill="#AEB1B9"></path>
        <path d="M11,4 L12,4 L12,3 L11,3 L11,4 Z M11,6 L12,6 L12,5 L11,5 L11,6 Z M11,8 L12,8 L12,7 L11,7 L11,8 Z M11,10 L12,10 L12,9 L11,9 L11,10 Z M11,12 L12,12 L12,11 L11,11 L11,12 Z M11,14 L12,14 L12,13 L11,13 L11,14 Z M11,16 L12,16 L12,15 L11,15 L11,16 Z M9,4 L10,4 L10,3 L9,3 L9,4 Z M9,6 L10,6 L10,5 L9,5 L9,6 Z M9,8 L10,8 L10,7 L9,7 L9,8 Z M9,10 L10,10 L10,9 L9,9 L9,10 Z M9,12 L10,12 L10,11 L9,11 L9,12 Z M9,14 L10,14 L10,13 L9,13 L9,14 Z M9,16 L10,16 L10,15 L9,15 L9,16 Z M8,18 L13,18 L13,2 L8,2 L8,18 Z" id="Fill-5" fill="#AEB1B9"></path>
    </g>
</svg>