<?xml version="1.0" encoding="UTF-8" standalone="no"?>
<svg width="12px" height="12px" viewBox="0 0 12 12" version="1.1" xmlns="http://www.w3.org/2000/svg" xmlns:xlink="http://www.w3.org/1999/xlink">
    <!-- Generator: Sketch 48.2 (47327) - http://www.bohemiancoding.com/sketch -->
    <title>icons/positive-clear/dataset-xs</title>
    <desc>Created with Sketch.</desc>
    <defs></defs>
    <g id="Symbols" stroke="none" stroke-width="1" fill="none" fill-rule="evenodd">
        <g id="icons/positive-clear/dataset-xs" fill="#AEB1B9">
            <path d="M11.0005,3.002 C11.0005,4.106 8.7615,5.002 6.0005,5.002 C3.2395,5.002 1.0005,4.106 1.0005,3.002 C1.0005,1.898 3.2395,1.002 6.0005,1.002 C8.7615,1.002 11.0005,1.898 11.0005,3.002" id="Fill-1"></path>
            <path d="M10.4438,5.1026 C9.2738,5.7116 7.6038,6.0016 6.0008,6.0016 C4.3968,6.0016 2.7268,5.7116 1.5568,5.1026 C1.2128,5.3736 1.0008,5.6756 1.0008,6.0006 C1.0008,7.1056 3.2388,8.0006 6.0008,8.0006 C8.7618,8.0006 11.0008,7.1056 11.0008,6.0006 C11.0008,5.6756 10.7878,5.3736 10.4438,5.1026" id="Fill-4"></path>
            <path d="M10.4434,8.1016 C9.2734,8.7106 7.6034,9.0006 6.0004,9.0006 C4.3974,9.0006 2.7284,8.7106 1.5574,8.1016 C1.2134,8.3726 1.0004,8.6756 1.0004,9.0006 C1.0004,10.1056 3.2394,11.0006 6.0004,11.0006 C8.7614,11.0006 11.0004,10.1056 11.0004,9.0006 C11.0004,8.6756 10.7884,8.3726 10.4434,8.1016" id="Fill-7"></path>
        </g>
    </g>
</svg>