<?xml version="1.0" encoding="UTF-8" standalone="no"?>
<svg width="20px" height="20px" viewBox="0 0 20 20" version="1.1" xmlns="http://www.w3.org/2000/svg" xmlns:xlink="http://www.w3.org/1999/xlink">
    <!-- Generator: Sketch 49.2 (51160) - http://www.bohemiancoding.com/sketch -->
    <title>icons/positive-clear/options</title>
    <desc>Created with Sketch.</desc>
    <defs></defs>
    <g id="icons/positive-clear/options" stroke="none" stroke-width="1" fill="none" fill-rule="evenodd">
        <g id="Group" transform="translate(10.000000, 10.000000) rotate(-90.000000) translate(-10.000000, -10.000000) translate(8.000000, 1.000000)" fill="#AEB1B9">
            <path d="M4,9 C4,10.104 3.104,11 2,11 C0.896,11 0,10.104 0,9 C0,7.896 0.896,7 2,7 C3.104,7 4,7.896 4,9" id="Fill-3"></path>
            <path d="M4,2 C4,3.104 3.104,4 2,4 C0.896,4 0,3.104 0,2 C0,0.896 0.896,0 2,0 C3.104,0 4,0.896 4,2" id="Fill-5"></path>
            <path d="M4,16 C4,17.104 3.104,18 2,18 C0.896,18 0,17.104 0,16 C0,14.896 0.896,14 2,14 C3.104,14 4,14.896 4,16" id="Fill-7"></path>
        </g>
    </g>
</svg>