<?xml version="1.0" encoding="UTF-8" standalone="no"?>
<svg width="20px" height="20px" viewBox="0 0 20 20" version="1.1" xmlns="http://www.w3.org/2000/svg" xmlns:xlink="http://www.w3.org/1999/xlink">
    <!-- Generator: Sketch 48.2 (47327) - http://www.bohemiancoding.com/sketch -->
    <title>icons/negative/3d-view</title>
    <desc>Created with Sketch.</desc>
    <defs></defs>
    <g id="Symbols" stroke="none" stroke-width="1" fill="none" fill-rule="evenodd">
        <g id="icons/negative/3d-view" fill="#FFFFFF">
            <path d="M10.4858,0.2695 C10.1828,0.1015 9.8168,0.1015 9.5138,0.2695 L1.5148,4.7145 L9.9998,9.4275 L18.4848,4.7145 L10.4858,0.2695 Z" id="Fill-3"></path>
            <path d="M6.5508,14.9248 C6.4678,15.0768 6.3558,15.1788 6.2158,15.2368 C6.0738,15.2908 5.9088,15.2988 5.7188,15.2578 C5.5288,15.2158 5.3278,15.1398 5.1178,15.0228 C4.8098,14.8518 4.5368,14.6498 4.3018,14.4178 C4.0668,14.1868 3.8638,13.9448 3.6968,13.6908 L4.0568,13.1508 C4.2068,13.3798 4.3668,13.5858 4.5388,13.7728 C4.7108,13.9558 4.8998,14.1048 5.1058,14.2208 C5.3658,14.3638 5.5568,14.3978 5.6738,14.3178 C5.7928,14.2378 5.8528,14.0918 5.8528,13.8818 C5.8528,13.5988 5.7688,13.3548 5.6048,13.1418 C5.4398,12.9308 5.2198,12.7488 4.9448,12.5968 C4.8848,12.5628 4.8228,12.5288 4.7618,12.5008 C4.6988,12.4708 4.6378,12.4448 4.5778,12.4198 L4.5778,11.8428 C4.6638,11.7258 4.7368,11.6448 4.7968,11.5978 C4.8398,11.5608 4.8868,11.5238 4.9378,11.4858 C4.9888,11.4488 5.0448,11.4128 5.1058,11.3748 C5.1908,11.3278 5.2628,11.2918 5.3208,11.2658 C5.3788,11.2398 5.4178,11.2218 5.4408,11.2098 L3.8008,10.2968 L3.8008,9.4928 L6.4768,10.9838 L6.4768,11.7658 C6.4088,11.7758 6.3368,11.7958 6.2608,11.8168 C6.1838,11.8358 6.1028,11.8638 6.0178,11.8968 C5.8378,11.9538 5.7068,12.0158 5.6228,12.0748 C5.5398,12.1328 5.4808,12.1858 5.4468,12.2278 C5.7378,12.3788 5.9848,12.5908 6.1838,12.8608 C6.2848,12.9978 6.3678,13.1288 6.4318,13.2608 C6.4958,13.3888 6.5458,13.5168 6.5828,13.6398 C6.6188,13.7638 6.6438,13.8798 6.6558,13.9898 C6.6688,14.1018 6.6748,14.2028 6.6748,14.2958 C6.6748,14.5658 6.6338,14.7738 6.5508,14.9248 Z M1.0018,5.5738 C1.0018,5.5788 0.9998,5.5838 0.9998,5.5888 L0.9998,14.4108 C0.9998,14.7748 1.1968,15.1088 1.5138,15.2848 L9.4998,19.7228 L9.4998,10.2938 L1.0018,5.5738 Z" id="Fill-5" fill-opacity="0.8"></path>
            <path d="M16.4058,12.5156 C16.3298,12.8046 16.2378,13.0706 16.1298,13.3166 C16.0198,13.5626 15.9028,13.7776 15.7788,13.9626 C15.6548,14.1466 15.5468,14.2816 15.4568,14.3636 C15.1658,14.6856 14.8268,14.9516 14.4418,15.1656 L13.2008,15.8576 L13.2008,11.1606 L14.4098,10.4886 C14.5638,10.4046 14.7348,10.3226 14.9238,10.2456 C15.1128,10.1696 15.2918,10.1246 15.4638,10.1156 C15.7328,10.1116 15.9528,10.2046 16.1198,10.3986 C16.2908,10.5836 16.3978,10.7986 16.4408,11.0426 C16.4618,11.1656 16.4798,11.2776 16.4928,11.3766 C16.5058,11.4766 16.5098,11.5666 16.5058,11.6486 C16.5138,11.9396 16.4808,12.2286 16.4058,12.5156 M18.9978,5.5746 L10.4998,10.2946 L10.4998,19.7226 L18.4858,15.2856 C18.8028,15.1086 18.9998,14.7746 18.9998,14.4116 L18.9998,5.5886 C18.9998,5.5836 18.9978,5.5786 18.9978,5.5746" id="Fill-7" fill-opacity="0.6"></path>
            <path d="M15.1421,11.1445 C15.0481,11.1265 14.9321,11.1385 14.7921,11.1815 C14.6521,11.2225 14.5141,11.2835 14.3771,11.3595 L14.0231,11.5545 L14.0231,14.5465 L14.3581,14.3615 C14.6581,14.1955 14.9021,13.9995 15.0911,13.7775 C15.2871,13.5525 15.4341,13.2925 15.5281,12.9995 C15.6221,12.7065 15.6691,12.4255 15.6691,12.1545 C15.6691,11.8885 15.6261,11.6625 15.5401,11.4725 C15.4551,11.2855 15.3221,11.1755 15.1421,11.1445" id="Fill-9" fill-opacity="0.6"></path>
        </g>
    </g>
</svg>