<?xml version="1.0" encoding="UTF-8" standalone="no"?>
<svg width="20px" height="20px" viewBox="0 0 20 20" version="1.1" xmlns="http://www.w3.org/2000/svg" xmlns:xlink="http://www.w3.org/1999/xlink">
    <!-- Generator: Sketch 47.1 (45422) - http://www.bohemiancoding.com/sketch -->
    <title>icons/negative/add</title>
    <desc>Created with Sketch.</desc>
    <defs></defs>
    <g id="Symbols" stroke="none" stroke-width="1" fill="none" fill-rule="evenodd">
        <g id="icons/negative/add" fill="#FFFFFF">
            <path d="M16,9 L11,9 L11,4 C11,3.447 10.552,3 10,3 C9.448,3 9,3.447 9,4 L9,9 L4,9 C3.448,9 3,9.447 3,10 C3,10.553 3.448,11 4,11 L9,11 L9,16 C9,16.553 9.448,17 10,17 C10.552,17 11,16.553 11,16 L11,11 L16,11 C16.552,11 17,10.553 17,10 C17,9.447 16.552,9 16,9" id="Page-1"></path>
        </g>
    </g>
</svg>