<?xml version="1.0" encoding="UTF-8" standalone="no"?>
<svg width="20px" height="20px" viewBox="0 0 20 20" version="1.1" xmlns="http://www.w3.org/2000/svg" xmlns:xlink="http://www.w3.org/1999/xlink">
    <!-- Generator: Sketch 47.1 (45422) - http://www.bohemiancoding.com/sketch -->
    <title>icons/negative/competitor</title>
    <desc>Created with Sketch.</desc>
    <defs></defs>
    <g id="Symbols" stroke="none" stroke-width="1" fill="none" fill-rule="evenodd">
        <g id="icons/negative/competitor" fill="#FFFFFF">
            <path d="M3.6177,18.001 L4.6177,16 L5.9997,16 L13.9997,16 L15.3817,16 L16.3827,18.001 L3.6177,18.001 Z M6.9997,14 L12.9997,14 L12.9997,8.001 L6.9997,8.001 L6.9997,14 Z M4.9997,2 L6.9997,2 L6.9997,3 C6.9997,3.553 7.4477,4 7.9997,4 L11.9997,4 C12.5527,4 12.9997,3.553 12.9997,3 L12.9997,2 L14.9997,2 L14.9997,6 L4.9997,6 L4.9997,2 Z M18.8137,18.394 L16.8947,14.553 C16.7247,14.214 16.3787,14 15.9997,14 L14.9997,14 L14.9997,8 L15.9997,8 C16.5527,8 16.9997,7.553 16.9997,7 L16.9997,1 C16.9997,0.447 16.5527,0 15.9997,0 L11.9997,0 C11.4477,0 10.9997,0.447 10.9997,1 L10.9997,2 L8.9997,2 L8.9997,1 C8.9997,0.447 8.5527,0 7.9997,0 L3.9997,0 C3.4477,0 2.9997,0.447 2.9997,1 L2.9997,7 C2.9997,7.553 3.4477,8 3.9997,8 L4.9997,8 L4.9997,14 L3.9997,14 C3.6207,14 3.2747,14.214 3.1057,14.553 L1.1057,18.554 C0.9507,18.864 0.9677,19.232 1.1497,19.526 C1.3317,19.821 1.6537,20.001 1.9997,20.001 L17.9997,20.001 C18.0077,20 18.0137,20 18.0197,20.001 C18.5727,20.001 19.0197,19.554 19.0197,19.001 C19.0197,18.772 18.9437,18.562 18.8137,18.394 L18.8137,18.394 Z" id="Fill-3"></path>
        </g>
    </g>
</svg>