<?xml version="1.0" encoding="UTF-8" standalone="no"?>
<svg width="20px" height="20px" viewBox="0 0 20 20" version="1.1" xmlns="http://www.w3.org/2000/svg" xmlns:xlink="http://www.w3.org/1999/xlink">
    <!-- Generator: Sketch 47.1 (45422) - http://www.bohemiancoding.com/sketch -->
    <title>icons/negative/days</title>
    <desc>Created with Sketch.</desc>
    <defs></defs>
    <g id="Symbols" stroke="none" stroke-width="1" fill="none" fill-rule="evenodd">
        <g id="icons/negative/days" fill="#FFFFFF">
            <g id="Page-1" transform="translate(1.000000, 1.000000)">
                <path d="M2,16 L16,16 L16,6 L2,6 L2,16 Z M2,4 L16,4 L16,2 L2,2 L2,4 Z M17,0 L1,0 C0.448,0 0,0.447 0,1 L0,17 C0,17.553 0.448,18 1,18 L17,18 C17.552,18 18,17.553 18,17 L18,1 C18,0.447 17.552,0 17,0 L17,0 Z" id="Fill-1"></path>
                <polygon id="Fill-3" points="4 9.999 6 9.999 6 7.999 4 7.999"></polygon>
                <polygon id="Fill-4" points="12 9.999 14 9.999 14 7.999 12 7.999"></polygon>
                <polygon id="Fill-5" points="8 9.999 10 9.999 10 7.999 8 7.999"></polygon>
                <polygon id="Fill-6" points="4 13.999 6 13.999 6 11.999 4 11.999"></polygon>
                <polygon id="Fill-7" points="12 13.999 14 13.999 14 11.999 12 11.999"></polygon>
                <polygon id="Fill-8" points="8 13.999 10 13.999 10 11.999 8 11.999"></polygon>
            </g>
        </g>
    </g>
</svg>