<?xml version="1.0" encoding="UTF-8" standalone="no"?>
<svg width="20px" height="20px" viewBox="0 0 20 20" version="1.1" xmlns="http://www.w3.org/2000/svg" xmlns:xlink="http://www.w3.org/1999/xlink">
    <!-- Generator: Sketch 47.1 (45422) - http://www.bohemiancoding.com/sketch -->
    <title>icons/accent/fullscreen</title>
    <desc>Created with Sketch.</desc>
    <defs></defs>
    <g id="Symbols" stroke="none" stroke-width="1" fill="none" fill-rule="evenodd">
        <g id="icons/accent/fullscreen" fill="#FFFFFF">
            <g id="Page-1" transform="translate(2.000000, 2.000000)">
                <path d="M14.9995,6 L14.9995,6 C14.4475,6 13.9995,5.552 13.9995,5 L13.9995,2 L10.9995,2 C10.4475,2 9.9995,1.553 9.9995,1 C9.9995,0.447 10.4475,0 10.9995,0 L14.9995,0 C15.2655,0 15.5195,0.105 15.7075,0.293 C15.8945,0.48 15.9995,0.735 15.9995,1 L15.9995,5 C15.9995,5.553 15.5515,6 14.9995,6" id="Fill-1"></path>
                <path d="M1,6 C0.448,6 0,5.553 0,5 L0,1 C0,0.447 0.448,0 1,0 L5,0 C5.552,0 6,0.447 6,1 C6,1.553 5.552,2 5,2 L2,2 L2,5 C2,5.553 1.552,6 1,6" id="Fill-3"></path>
                <path d="M5,16 L1,16 C0.448,16 0,15.553 0,15 L0,11 C0,10.447 0.448,10 1,10 C1.552,10 2,10.447 2,11 L2,14 L5,14 C5.552,14 6,14.447 6,15 C6,15.553 5.552,16 5,16" id="Fill-5"></path>
                <path d="M15,16 L11,16 C10.448,16 10,15.553 10,15 C10,14.447 10.448,14 11,14 L14,14 L14,11 C14,10.447 14.448,10 15,10 C15.552,10 16,10.447 16,11 L16,15 C16,15.553 15.552,16 15,16" id="Fill-7"></path>
            </g>
        </g>
    </g>
</svg>
