<?xml version="1.0" encoding="UTF-8" standalone="no"?>
<svg width="20px" height="20px" viewBox="0 0 20 20" version="1.1" xmlns="http://www.w3.org/2000/svg" xmlns:xlink="http://www.w3.org/1999/xlink">
    <!-- Generator: Sketch 47.1 (45422) - http://www.bohemiancoding.com/sketch -->
    <title>icons/accent/fullscreen-off</title>
    <desc>Created with Sketch.</desc>
    <defs></defs>
    <g id="Symbols" stroke="none" stroke-width="1" fill="none" fill-rule="evenodd">
        <g id="icons/accent/fullscreen-off" fill="#FFFFFF">
            <path d="M6.9995,18 L6.9995,18 C6.4475,18 5.9995,17.552 5.9995,17 L5.9995,14 L2.9995,14 C2.4475,14 1.9995,13.553 1.9995,13 C1.9995,12.447 2.4475,12 2.9995,12 L6.9995,12 C7.2655,12 7.5195,12.105 7.7075,12.293 C7.8945,12.48 7.9995,12.735 7.9995,13 L7.9995,17 C7.9995,17.553 7.5515,18 6.9995,18" id="Fill-3"></path>
            <path d="M13,18 C12.448,18 12,17.553 12,17 L12,13 C12,12.447 12.448,12 13,12 L17,12 C17.552,12 18,12.447 18,13 C18,13.553 17.552,14 17,14 L14,14 L14,17 C14,17.553 13.552,18 13,18" id="Fill-5"></path>
            <path d="M17,8 L13,8 C12.448,8 12,7.553 12,7 L12,3 C12,2.447 12.448,2 13,2 C13.552,2 14,2.447 14,3 L14,6 L17,6 C17.552,6 18,6.447 18,7 C18,7.553 17.552,8 17,8" id="Fill-7"></path>
            <path d="M7,8 L3,8 C2.448,8 2,7.553 2,7 C2,6.447 2.448,6 3,6 L6,6 L6,3 C6,2.447 6.448,2 7,2 C7.552,2 8,2.447 8,3 L8,7 C8,7.553 7.552,8 7,8" id="Fill-9"></path>
        </g>
    </g>
</svg>
