<?xml version="1.0" encoding="UTF-8" standalone="no"?>
<svg width="12px" height="12px" viewBox="0 0 12 12" version="1.1" xmlns="http://www.w3.org/2000/svg" xmlns:xlink="http://www.w3.org/1999/xlink">
    <!-- Generator: Sketch 47.1 (45422) - http://www.bohemiancoding.com/sketch -->
    <title>icons/negative/help-legend</title>
    <desc>Created with Sketch.</desc>
    <defs></defs>
    <g id="Symbols" stroke="none" stroke-width="1" fill="none" fill-rule="evenodd">
        <g id="icons/negative/help-legend" fill="#FFFFFF">
            <path d="M8.139,4.971 C7.977,5.264 7.746,5.573 7.445,5.896 C6.952,6.412 6.705,6.828 6.705,7.145 L6.705,7.422 L5.306,7.422 L5.306,6.937 C5.306,6.62 5.382,6.339 5.532,6.093 C5.682,5.846 5.911,5.569 6.22,5.26 C6.405,5.075 6.569,4.889 6.711,4.7 C6.853,4.51 6.925,4.282 6.925,4.012 C6.925,3.773 6.848,3.584 6.694,3.445 C6.539,3.307 6.32,3.237 6.035,3.237 C5.827,3.237 5.603,3.308 5.365,3.451 C5.125,3.593 4.879,3.826 4.624,4.151 L3.746,3.248 C3.962,2.958 4.22,2.721 4.52,2.538 C4.844,2.332 5.143,2.191 5.416,2.115 C5.69,2.038 5.943,2 6.174,2 C6.728,1.992 7.183,2.115 7.538,2.367 C7.707,2.496 7.85,2.631 7.966,2.773 C8.081,2.914 8.17,3.058 8.231,3.203 C8.293,3.349 8.335,3.49 8.359,3.624 C8.382,3.759 8.389,3.877 8.382,3.977 C8.382,4.347 8.301,4.678 8.139,4.971 M6.654,9.717 C6.488,9.906 6.27,10 6,10 C5.738,10 5.524,9.906 5.359,9.717 C5.193,9.528 5.11,9.311 5.11,9.063 C5.11,8.817 5.193,8.599 5.359,8.41 C5.524,8.222 5.738,8.127 6,8.127 C6.27,8.127 6.488,8.222 6.654,8.41 C6.819,8.599 6.902,8.817 6.902,9.063 C6.902,9.311 6.819,9.528 6.654,9.717 M6,0 C2.686,0 0,2.687 0,6 C0,9.314 2.686,12 6,12 C9.314,12 12,9.314 12,6 C12,2.687 9.314,0 6,0" id="Fill-1"></path>
        </g>
    </g>
</svg>