<?xml version="1.0" encoding="UTF-8" standalone="no"?>
<svg width="20px" height="20px" viewBox="0 0 20 20" version="1.1" xmlns="http://www.w3.org/2000/svg" xmlns:xlink="http://www.w3.org/1999/xlink">
    <!-- Generator: Sketch 49.2 (51160) - http://www.bohemiancoding.com/sketch -->
    <title>icons/negative/home-vertical</title>
    <desc>Created with Sketch.</desc>
    <defs></defs>
    <g id="icons/negative/home-vertical" stroke="none" stroke-width="1" fill="none" fill-rule="evenodd">
        <path d="M2,7.001 L17.998,7.001 L17.998,2 L2,2 L2,7.001 Z M18.998,9.001 L1,9.001 C0.444,9.001 0,8.553 0,8.001 L0,1 C0,0.447 0.444,0 1,0 L18.998,0 C19.549,0 19.998,0.447 19.998,1 L19.998,8.001 C19.998,8.553 19.549,9.001 18.998,9.001 Z" id="Fill-3" fill="#FFFFFF"></path>
        <path d="M2,18.001 L7,18.001 L7,13 L2,13 L2,18.001 Z M8,20.001 L1,20.001 C0.444,20.001 0,19.553 0,19.001 L0,12 C0,11.447 0.444,11 1,11 L8,11 C8.551,11 9,11.447 9,12 L9,19.001 C9,19.553 8.551,20.001 8,20.001 Z" id="Fill-1" fill="#FFFFFF"></path>
        <path d="M13,18.001 L18,18.001 L18,13 L13,13 L13,18.001 Z M19,20.001 L12,20.001 C11.444,20.001 11,19.553 11,19.001 L11,12 C11,11.447 11.444,11 12,11 L19,11 C19.551,11 20,11.447 20,12 L20,19.001 C20,19.553 19.551,20.001 19,20.001 Z" id="Fill-3" fill="#FFFFFF"></path>
    </g>
</svg>