<?xml version="1.0" encoding="UTF-8" standalone="no"?>
<svg width="20px" height="20px" viewBox="0 0 20 20" version="1.1" xmlns="http://www.w3.org/2000/svg" xmlns:xlink="http://www.w3.org/1999/xlink">
    <!-- Generator: Sketch 47.1 (45422) - http://www.bohemiancoding.com/sketch -->
    <title>icons/negative/hours</title>
    <desc>Created with Sketch.</desc>
    <defs></defs>
    <g id="Symbols" stroke="none" stroke-width="1" fill="none" fill-rule="evenodd">
        <g id="icons/negative/hours" fill="#FFFFFF">
            <path d="M10,0 C4.477,0 0,4.478 0,10 C0,15.522 4.477,20 10,20 C15.523,20 20,15.522 20,10 C20,4.478 15.523,0 10,0 M10,2 C14.411,2 18,5.589 18,10 C18,14.411 14.411,18 10,18 C5.589,18 2,14.411 2,10 C2,5.589 5.589,2 10,2" id="Fill-3"></path>
            <path d="M13,14 C12.744,14 12.488,13.902 12.293,13.707 L9.293,10.707 C9.105,10.52 9,10.266 9,10 L9,4 C9,3.447 9.448,3 10,3 C10.552,3 11,3.447 11,4 L11,9.586 L13.707,12.293 C14.098,12.684 14.098,13.316 13.707,13.707 C13.512,13.902 13.256,14 13,14" id="Fill-5"></path>
        </g>
    </g>
</svg>