<?xml version="1.0" encoding="UTF-8" standalone="no"?>
<svg width="20px" height="20px" viewBox="0 0 20 20" version="1.1" xmlns="http://www.w3.org/2000/svg" xmlns:xlink="http://www.w3.org/1999/xlink">
    <!-- Generator: Sketch 47.1 (45422) - http://www.bohemiancoding.com/sketch -->
    <title>icons/negative/iso-by-car</title>
    <desc>Created with Sketch.</desc>
    <defs></defs>
    <g id="Symbols" stroke="none" stroke-width="1" fill="none" fill-rule="evenodd">
        <g id="icons/negative/iso-by-car" fill="#FFFFFF">
            <path d="M14,13 C13.171,13 12.5,12.327 12.5,11.5 C12.5,10.673 13.171,10 14,10 C14.829,10 15.5,10.673 15.5,11.5 C15.5,12.327 14.829,13 14,13 L14,13 Z M6,13 C5.172,13 4.5,12.327 4.5,11.5 C4.5,10.673 5.172,10 6,10 C6.829,10 7.5,10.673 7.5,11.5 C7.5,12.327 6.829,13 6,13 L6,13 Z M5.961,4.391 C5.996,4.211 6.256,4 6.4,4 L13.6,4 C13.744,4 14.002,4.211 14.039,4.393 L15.16,8 L4.84,8 L5.961,4.391 Z M17.301,8.51 L16,4 C15.781,2.895 14.703,2 13.6,2 L6.4,2 C5.293,2 4.219,2.895 4,4 L2.699,8.51 C2.277,8.879 2,9.398 2,10 L2,17 C2,17.553 2.449,18 3,18 L4,18 C4.551,18 5,17.553 5,17 L5,15 L15,15 L15,17 C15,17.553 15.449,18 16,18 L17,18 C17.551,18 18,17.553 18,17 L18,10 C18,9.398 17.723,8.879 17.301,8.51 L17.301,8.51 Z" id="Page-1"></path>
        </g>
    </g>
</svg>