<?xml version="1.0" encoding="UTF-8" standalone="no"?>
<svg width="20px" height="20px" viewBox="0 0 20 20" version="1.1" xmlns="http://www.w3.org/2000/svg" xmlns:xlink="http://www.w3.org/1999/xlink">
    <!-- Generator: Sketch 48.2 (47327) - http://www.bohemiancoding.com/sketch -->
    <title>icons/negative/salidas</title>
    <desc>Created with Sketch.</desc>
    <defs></defs>
    <g id="Symbols" stroke="none" stroke-width="1" fill="none" fill-rule="evenodd">
        <g id="icons/negative/salidas" fill="#FFFFFF">
            <path d="M17.707,4.293 L14.707,1.293 C14.511,1.098 14.255,1 13.999,1 C13.744,1 13.488,1.098 13.292,1.293 C12.902,1.684 12.902,2.316 13.292,2.707 L14.586,4 L7.005,4.001 C7.003,4.001 7.002,4 7,4 C6.448,4 6,4.447 6,5 C6,5.553 6.448,6 7,6 L7,6.001 L14.586,6 L13.293,7.293 C12.903,7.684 12.903,8.316 13.293,8.707 C13.684,9.098 14.317,9.098 14.707,8.707 L17.707,5.707 C18.098,5.316 18.098,4.684 17.707,4.293" id="Fill-3"></path>
            <path d="M2.293,15.707 L5.293,18.707 C5.489,18.902 5.745,19 6.001,19 C6.256,19 6.512,18.902 6.708,18.707 C7.098,18.316 7.098,17.684 6.708,17.293 L5.414,16 L12.995,15.999 C12.997,15.999 12.998,16 13,16 C13.552,16 14,15.553 14,15 C14,14.447 13.552,14 13,14 L13,13.999 L5.414,14 L6.707,12.707 C7.097,12.316 7.097,11.684 6.707,11.293 C6.316,10.902 5.683,10.902 5.293,11.293 L2.293,14.293 C1.902,14.684 1.902,15.316 2.293,15.707" id="Fill-5"></path>
        </g>
    </g>
</svg>