<?xml version="1.0" encoding="UTF-8" standalone="no"?>
<svg width="20px" height="20px" viewBox="0 0 20 20" version="1.1" xmlns="http://www.w3.org/2000/svg" xmlns:xlink="http://www.w3.org/1999/xlink">
    <!-- Generator: Sketch 47.1 (45422) - http://www.bohemiancoding.com/sketch -->
    <title>icons/negative/places-origin</title>
    <desc>Created with Sketch.</desc>
    <defs></defs>
    <g id="Symbols" stroke="none" stroke-width="1" fill="none" fill-rule="evenodd">
        <g id="icons/negative/places-origin" fill="#FFFFFF">
            <path d="M8,0 C5.868,0 3.86,0.83 2.345,2.339 C0.832,3.854 0,5.863 0,8 C0,12.65 5.199,18.393 5.792,19.031 C6.342,19.641 7.153,20 8,20 C8.849,20 9.661,19.639 10.228,19.009 C10.801,18.392 16,12.65 16,8 C16,5.863 15.168,3.854 13.657,2.342 C12.144,0.831 10.135,0 8,0 M8,2 C9.601,2 11.108,2.624 12.242,3.756 C13.376,4.891 14,6.397 14,8 C14,12 8.741,17.671 8.741,17.671 C8.552,17.881 8.283,18 8,18 C7.717,18 7.448,17.881 7.259,17.672 C7.259,17.672 2,12 2,8 C2,6.396 2.624,4.89 3.756,3.756 C4.893,2.624 6.399,2 8,2" id="Fill-3"></path>
            <circle id="Oval" cx="13" cy="19" r="1"></circle>
            <circle id="Oval" cx="16" cy="19" r="1"></circle>
            <circle id="Oval" cx="19" cy="19" r="1"></circle>
            <path d="M8,5.999 C6.897,5.999 6,6.896 6,7.999 C6,9.102 6.897,9.999 8,9.999 C9.103,9.999 10,9.102 10,7.999 C10,6.896 9.103,5.999 8,5.999 M8,11.999 C5.794,11.999 4,10.205 4,7.999 C4,5.793 5.794,3.999 8,3.999 C10.206,3.999 12,5.793 12,7.999 C12,10.205 10.206,11.999 8,11.999" id="Fill-5"></path>
        </g>
    </g>
</svg>