<?xml version="1.0" encoding="UTF-8" standalone="no"?>
<svg width="20px" height="20px" viewBox="0 0 20 20" version="1.1" xmlns="http://www.w3.org/2000/svg" xmlns:xlink="http://www.w3.org/1999/xlink">
    <!-- Generator: Sketch 47.1 (45422) - http://www.bohemiancoding.com/sketch -->
    <title>icons/negative/search</title>
    <desc>Created with Sketch.</desc>
    <defs></defs>
    <g id="Symbols" stroke="none" stroke-width="1" fill="none" fill-rule="evenodd">
        <g id="icons/negative/search" fill="#FFFFFF">
            <g id="Page-1" transform="translate(2.000000, 2.000000)">
                <path d="M2.0371,6.1113 C2.0371,3.8653 3.8661,2.0373 6.1121,2.0373 C8.3581,2.0373 10.1861,3.8653 10.1861,6.1113 C10.1861,8.3583 8.3581,10.1863 6.1121,10.1863 C3.8661,10.1863 2.0371,8.3583 2.0371,6.1113 L2.0371,6.1113 Z M16.0001,14.5593 L11.0901,9.6493 C11.8011,8.6503 12.2241,7.4313 12.2241,6.1113 C12.2241,2.7363 9.4871,0.0003 6.1121,0.0003 C2.7371,0.0003 0.0001,2.7363 0.0001,6.1113 C0.0001,9.4873 2.7371,12.2233 6.1121,12.2233 C7.4311,12.2233 8.6501,11.8003 9.6491,11.0903 L14.5591,16.0003 L16.0001,14.5593 Z" id="Fill-3"></path>
            </g>
        </g>
    </g>
</svg>