<?xml version="1.0" encoding="UTF-8" standalone="no"?>
<svg width="20px" height="20px" viewBox="0 0 20 20" version="1.1" xmlns="http://www.w3.org/2000/svg" xmlns:xlink="http://www.w3.org/1999/xlink">
    <!-- Generator: Sketch 49.2 (51160) - http://www.bohemiancoding.com/sketch -->
    <title>icons/negative/settings</title>
    <desc>Created with Sketch.</desc>
    <defs></defs>
    <g id="icons/negative/settings" stroke="none" stroke-width="1" fill="none" fill-rule="evenodd">
        <path d="M10,8 C8.897,8 8,8.897 8,10 C8,11.103 8.897,12 10,12 C11.103,12 12,11.103 12,10 C12,8.897 11.103,8 10,8 Z M10,14 C7.794,14 6,12.206 6,10 C6,7.794 7.794,6 10,6 C12.206,6 14,7.794 14,10 C14,12.206 12.206,14 10,14 Z M9.624,18 L10.33,18 L10.607,16.839 C10.696,16.47 10.986,16.183 11.357,16.098 C12.054,15.938 12.705,15.667 13.292,15.293 C13.614,15.089 14.027,15.084 14.354,15.286 L15.389,15.924 L15.885,15.429 L15.236,14.374 C15.039,14.053 15.039,13.646 15.236,13.325 C15.608,12.722 15.87,12.081 16.015,11.422 C16.097,11.046 16.387,10.751 16.761,10.663 L18,10.369 L18,9.667 L16.726,9.364 C16.36,9.278 16.074,8.993 15.985,8.628 C15.829,7.986 15.565,7.369 15.202,6.794 C14.998,6.472 14.995,6.062 15.195,5.736 L15.889,4.607 L15.389,4.108 L14.238,4.816 C13.917,5.014 13.513,5.015 13.192,4.817 C12.626,4.472 12.02,4.221 11.389,4.073 C11.02,3.987 10.731,3.699 10.644,3.331 L10.328,2 L9.625,2 L9.309,3.331 C9.221,3.699 8.933,3.987 8.564,4.073 C7.929,4.222 7.322,4.472 6.761,4.814 C6.44,5.012 6.036,5.011 5.715,4.813 L4.565,4.106 L4.066,4.605 L4.762,5.736 C4.962,6.062 4.959,6.473 4.755,6.795 C4.412,7.336 4.155,7.953 3.991,8.627 C3.903,8.992 3.618,9.276 3.253,9.364 L2,9.664 L2,10.371 L3.217,10.663 C3.59,10.753 3.879,11.047 3.961,11.421 C4.112,12.109 4.369,12.75 4.723,13.324 C4.922,13.646 4.922,14.053 4.723,14.375 L4.071,15.431 L4.566,15.928 L5.6,15.291 C5.927,15.091 6.338,15.094 6.662,15.3 C7.239,15.667 7.89,15.936 8.596,16.098 C8.967,16.183 9.257,16.47 9.346,16.84 L9.624,18 Z M11.118,20 L8.834,20 C8.372,20 7.97,19.683 7.862,19.232 L7.539,17.884 C7.05,17.733 6.582,17.54 6.14,17.308 L4.942,18.045 C4.547,18.287 4.038,18.227 3.71,17.9 L2.097,16.285 C1.77,15.957 1.71,15.447 1.954,15.053 L2.712,13.825 C2.491,13.394 2.31,12.94 2.168,12.469 L0.767,12.133 C0.317,12.024 0,11.623 0,11.16 L0,8.876 C0,8.413 0.317,8.012 0.767,7.903 L2.216,7.556 C2.359,7.108 2.537,6.681 2.747,6.277 L1.95,4.981 C1.707,4.587 1.767,4.078 2.094,3.75 L3.708,2.134 C4.036,1.808 4.545,1.747 4.94,1.989 L6.263,2.803 C6.662,2.599 7.075,2.429 7.5,2.294 L7.861,0.769 C7.969,0.318 8.371,0 8.834,0 L11.118,0 C11.582,0 11.984,0.318 12.091,0.769 L12.453,2.294 C12.877,2.43 13.291,2.601 13.69,2.806 L15.014,1.991 C15.409,1.748 15.918,1.808 16.245,2.136 L17.861,3.751 C18.188,4.078 18.248,4.587 18.006,4.981 L17.211,6.274 C17.431,6.688 17.613,7.115 17.757,7.554 L19.23,7.903 C19.682,8.01 20,8.412 20,8.876 L20,11.16 C20,11.624 19.682,12.026 19.23,12.133 L17.805,12.471 C17.663,12.935 17.477,13.389 17.249,13.828 L18.003,15.053 C18.246,15.447 18.186,15.957 17.858,16.284 L16.243,17.897 C15.916,18.226 15.406,18.285 15.011,18.041 L13.813,17.302 C13.368,17.538 12.9,17.732 12.414,17.883 L12.091,19.233 C11.983,19.683 11.581,20 11.118,20 Z" id="Fill-3" fill="#FFFFFF"></path>
    </g>
</svg>