<?xml version="1.0" encoding="UTF-8" standalone="no"?>
<svg width="20px" height="20px" viewBox="0 0 20 20" version="1.1" xmlns="http://www.w3.org/2000/svg" xmlns:xlink="http://www.w3.org/1999/xlink">
    <!-- Generator: Sketch 48.2 (47327) - http://www.bohemiancoding.com/sketch -->
    <title>icons/negative/target</title>
    <desc>Created with Sketch.</desc>
    <defs></defs>
    <g id="Symbols" stroke="none" stroke-width="1" fill="none" fill-rule="evenodd">
        <g id="icons/negative/target" fill="#FFFFFF">
            <path d="M9,9 C10.104,9 11,8.104 11,7 C11,5.896 10.104,5 9,5 C7.896,5 7,5.896 7,7 C7,8.104 7.896,9 9,9" id="Fill-3"></path>
            <path d="M9,15 C5.687,15 3,12.314 3,9 C3,5.686 5.687,3 9,3 C12.313,3 15,5.686 15,9 C15,12.314 12.313,15 9,15 M19.708,18.293 L16.708,15.293 C16.449,15.034 16.086,14.963 15.755,15.048 L14.991,14.283 C16.237,12.873 17,11.025 17,9 C17,4.589 13.411,1 9,1 C4.589,1 1,4.589 1,9 C1,13.411 4.589,17 9,17 C11.026,17 12.873,16.236 14.284,14.99 L15.048,15.755 C14.964,16.086 15.035,16.448 15.293,16.707 L18.293,19.707 C18.489,19.902 18.745,20 19,20 C19.256,20 19.512,19.902 19.708,19.707 C20.098,19.316 20.098,18.684 19.708,18.293" id="Fill-5"></path>
            <path d="M12.198,11 C12.24,10.447 11.827,10 11.274,10 L7.128,10 C6.575,10 6.159,10.447 6.201,11 L6,12.809 C6.87,13.541 7.977,14 9.2,14 C10.424,14 11.532,13.541 12.402,12.809 L12.201,11 L12.198,11 Z" id="Fill-8"></path>
        </g>
    </g>
</svg>