<?xml version="1.0" encoding="UTF-8" standalone="no"?>
<svg width="20px" height="20px" viewBox="0 0 20 20" version="1.1" xmlns="http://www.w3.org/2000/svg" xmlns:xlink="http://www.w3.org/1999/xlink">
    <!-- Generator: Sketch 47.1 (45422) - http://www.bohemiancoding.com/sketch -->
    <title>icons/hipercor-neg</title>
    <desc>Created with Sketch.</desc>
    <defs>
        <polygon id="path-1" points="0 0 0 9 16 4.5"></polygon>
    </defs>
    <g id="Symbols" stroke="none" stroke-width="1" fill="none" fill-rule="evenodd">
        <g id="icons/hipercor-neg">
            <g id="Page-1" transform="translate(3.000000, 6.000000)">
                <g id="Fill-1" stroke-linecap="round" stroke-linejoin="round">
                    <use fill="#034EA2" fill-rule="evenodd" xlink:href="#path-1"></use>
                    <path stroke="#FFFFFF" stroke-width="0.5" d="M-0.25,-0.330012033 L16.9233761,4.5 L-0.25,9.33001203 L-0.25,-0.330012033 Z"></path>
                </g>
                <polygon id="Fill-2" fill="#FFFFFF" points="2.385 5.419 2.886 5.419 2.886 3.57 2.385 3.57"></polygon>
                <polygon id="Fill-3" fill="#FFFFFF" points="1.7604 3.5703 1.7604 4.2053 1.4554 4.2053 1.4554 3.5703 0.9594 3.5703 0.9594 5.4193 1.4554 5.4193 1.4554 4.6503 1.7604 4.6503 1.7604 5.4193 2.2564 5.4193 2.2564 3.5703"></polygon>
                <polygon id="Fill-4" fill="#FFFFFF" points="4.3344 3.5703 4.3344 5.4193 5.2504 5.4193 5.2504 5.0053 4.8264 5.0053 4.8264 4.6743 5.2504 4.6743 5.2504 4.2733 4.8264 4.2733 4.8264 3.9713 5.2504 3.9713 5.2504 3.5703"></polygon>
                <g id="Group-15" transform="translate(3.000000, 3.000000)" fill="#FFFFFF">
                    <path d="M0.6567,0.5703 L0.0177,0.5703 L0.0177,2.4193 L0.5207,2.4193 L0.5207,1.7993 L0.6567,1.7993 C1.0017,1.7993 1.2677,1.6183 1.2677,1.1613 C1.2677,0.8893 1.1287,0.5703 0.6567,0.5703 M0.5207,1.3803 L0.5207,0.9433 C0.6757,0.9443 0.7677,1.0183 0.7677,1.1613 C0.7677,1.3033 0.7057,1.3793 0.5207,1.3803" id="Fill-5"></path>
                    <path d="M3.2871,1.668 C3.4541,1.61 3.5471,1.47 3.5471,1.161 C3.5471,0.832 3.3661,0.57 2.9641,0.57 L2.3671,0.57 L2.3671,2.419 L2.8531,2.419 L2.8531,1.708 L3.1341,2.418 L3.6581,2.418 L3.2871,1.668 Z M2.8531,0.943 C3.0021,0.944 3.0951,1.019 3.0951,1.161 C3.0951,1.304 3.0331,1.379 2.8531,1.38 L2.8531,0.943 Z" id="Fill-7"></path>
                    <path d="M7.1895,1.668 C7.3555,1.61 7.4485,1.47 7.4485,1.161 C7.4485,0.832 7.2675,0.57 6.8655,0.57 L6.2685,0.57 L6.2685,2.419 L6.7545,2.419 L6.7545,1.708 L7.0355,2.418 L7.5605,2.418 L7.1895,1.668 Z M6.7545,0.943 C6.9045,0.944 6.9965,1.019 6.9965,1.161 C6.9965,1.304 6.9355,1.379 6.7545,1.38 L6.7545,0.943 Z" id="Fill-9"></path>
                    <path d="M4.4751,1.0068 C4.5601,1.0068 4.6691,1.0418 4.7171,1.1018 L4.7171,0.5728 C4.6981,0.5638 4.5801,0.5218 4.4741,0.5218 C4.0601,0.5218 3.6281,0.7838 3.6271,1.4878 L3.6271,1.4908 C3.6281,2.1948 4.0601,2.4788 4.4741,2.4788 C4.5801,2.4788 4.6701,2.4528 4.7171,2.4258 L4.7171,1.8768 C4.6691,1.9378 4.5601,1.9678 4.4751,1.9678 C4.3291,1.9678 4.1621,1.8818 4.1621,1.4888 C4.1621,1.0978 4.3291,1.0068 4.4751,1.0068" id="Fill-11"></path>
                    <path d="M6.1846,1.4766 L6.1846,1.4766 C6.1726,0.7516 5.7486,0.5296 5.4726,0.5296 L5.4626,0.5296 C5.1866,0.5296 4.7636,0.7516 4.7516,1.4766 L4.7516,1.5056 C4.7626,2.2526 5.1896,2.4726 5.4626,2.4726 L5.4676,2.4726 L5.4726,2.4726 C5.7776,2.4726 6.1736,2.2466 6.1846,1.5056 L6.1846,1.5056 L6.1846,1.4766 Z M5.4706,1.9836 L5.4656,1.9836 C5.3286,1.9836 5.2796,1.7736 5.2796,1.4916 C5.2796,1.2096 5.3286,0.9986 5.4656,0.9986 L5.4706,0.9986 C5.6076,0.9986 5.6566,1.2096 5.6566,1.4916 C5.6566,1.7736 5.6076,1.9836 5.4706,1.9836 L5.4706,1.9836 Z" id="Fill-13"></path>
                </g>
            </g>
        </g>
    </g>
</svg>