<?xml version="1.0" encoding="UTF-8" standalone="no"?>
<svg width="20px" height="20px" viewBox="0 0 20 20" version="1.1" xmlns="http://www.w3.org/2000/svg" xmlns:xlink="http://www.w3.org/1999/xlink">
    <!-- Generator: Sketch 48.2 (47327) - http://www.bohemiancoding.com/sketch -->
    <title>icons/movistar-neg</title>
    <desc>Created with Sketch.</desc>
    <defs></defs>
    <g id="Symbols" stroke="none" stroke-width="1" fill="none" fill-rule="evenodd">
        <g id="icons/movistar-neg" fill="#FFFFFF">
            <path d="M16.9997988,10.248706 C16.9887988,10.979706 16.9387988,11.745706 16.7687988,12.499706 C16.7167988,12.727706 16.6087988,12.926706 16.4537988,13.092706 C16.2527988,13.308706 16.0007988,13.407706 15.7077988,13.334706 C15.4157988,13.262706 15.2687988,13.044706 15.2057988,12.768706 C15.1207988,12.389706 15.1917988,12.008706 15.2307988,11.631706 C15.2897988,11.059706 15.3397988,10.487706 15.3137988,9.910706 C15.3017988,9.608706 15.2647988,9.301706 15.0407988,9.075706 C14.7397988,8.772706 14.3247988,8.811706 13.9617988,9.149706 C13.6307988,9.457706 13.4087988,9.839706 13.2237988,10.248706 C12.8507988,11.076706 12.5987988,11.948706 12.3297988,12.811706 C12.1837988,13.277706 12.0207988,13.736706 11.6917988,14.107706 C10.5447988,15.398706 8.42279878,15.258706 7.47279878,13.802706 C6.94279878,12.989706 6.49179878,12.129706 6.00279878,11.290706 C5.89579878,11.108706 5.78279878,10.933706 5.63679878,10.778706 C5.47879878,10.612706 5.30279878,10.536706 5.07179878,10.596706 C4.82779878,10.657706 4.74279878,10.844706 4.70179878,11.057706 C4.64179878,11.381706 4.68379878,11.701706 4.74779878,12.020706 C4.88679878,12.722706 5.15679878,13.385706 5.32779878,14.074706 C5.38079878,14.287706 5.41479878,14.502706 5.40079878,14.723706 C5.38279878,14.976706 5.27779878,15.183706 5.03979878,15.283706 C4.76779878,15.398706 4.49779878,15.369706 4.26279878,15.180706 C4.03479878,14.994706 3.91079878,14.733706 3.81179878,14.471706 C3.29879878,13.130706 2.93479878,11.758706 3.00979878,10.305706 C3.05979878,9.352706 3.22779878,8.423706 3.67279878,7.565706 C4.03379878,6.867706 4.54879878,6.345706 5.37179878,6.222706 C5.93179878,6.138706 6.42979878,6.273706 6.86379878,6.644706 C7.36979878,7.075706 7.72379878,7.626706 8.08679878,8.172706 C8.36079878,8.580706 8.58079878,9.027706 8.90179878,9.402706 C9.21179878,9.765706 9.58179878,10.036706 10.0837988,10.019706 C10.6447988,9.999706 10.9877988,9.663706 11.2027988,9.181706 C11.5757988,8.337706 11.8817988,7.466706 12.2727988,6.629706 C12.5727988,5.983706 13.0087988,5.459706 13.6717988,5.178706 C14.6677988,4.757706 15.5777988,5.097706 16.1127988,6.071706 C16.5497988,6.869706 16.7627988,7.739706 16.8877988,8.636706 C16.9587988,9.158706 16.9857988,9.683706 16.9997988,10.248706" id="Page-1"></path>
        </g>
    </g>
</svg>