<?xml version="1.0" encoding="UTF-8" standalone="no"?>
<svg width="20px" height="20px" viewBox="0 0 20 20" version="1.1" xmlns="http://www.w3.org/2000/svg" xmlns:xlink="http://www.w3.org/1999/xlink">
    <!-- Generator: Sketch 48.2 (47327) - http://www.bohemiancoding.com/sketch -->
    <title>icons/accent/3d-view</title>
    <desc>Created with Sketch.</desc>
    <defs></defs>
    <g id="Symbols" stroke="none" stroke-width="1" fill="none" fill-rule="evenodd">
        <g id="icons/accent/3d-view" fill="#E60000">
            <path d="M6.0928,14.3701 C5.7848,14.1991 5.5118,13.9971 5.2768,13.7661 C5.0408,13.5341 4.8388,13.2921 4.6718,13.0381 L5.0318,12.4981 C5.1818,12.7271 5.3428,12.9331 5.5138,13.1201 C5.6858,13.3041 5.8738,13.4521 6.0798,13.5681 C6.3418,13.7121 6.5318,13.7451 6.6488,13.6651 C6.7678,13.5861 6.8268,13.4391 6.8268,13.2291 C6.8268,12.9461 6.7438,12.7021 6.5788,12.4891 C6.4138,12.2781 6.1948,12.0971 5.9188,11.9441 C5.8598,11.9101 5.7988,11.8771 5.7368,11.8491 C5.6738,11.8181 5.6128,11.7921 5.5528,11.7671 L5.5528,11.1901 C5.6388,11.0731 5.7118,10.9921 5.7718,10.9451 C5.8148,10.9081 5.8618,10.8711 5.9128,10.8331 C5.9648,10.7971 6.0198,10.7611 6.0798,10.7231 C6.1648,10.6761 6.2378,10.6401 6.2958,10.6131 C6.3538,10.5881 6.3928,10.5691 6.4148,10.5571 L4.7758,9.6441 L4.7758,8.8411 L7.4518,10.3311 L7.4518,11.1131 C7.3838,11.1231 7.3118,11.1431 7.2358,11.1641 C7.1578,11.1831 7.0768,11.2121 6.9928,11.2441 C6.8128,11.3021 6.6818,11.3631 6.5978,11.4231 C6.5148,11.4801 6.4548,11.5331 6.4208,11.5751 C6.7128,11.7261 6.9588,11.9381 7.1578,12.2081 C7.2598,12.3461 7.3428,12.4761 7.4068,12.6081 C7.4708,12.7361 7.5208,12.8641 7.5578,12.9871 C7.5938,13.1111 7.6178,13.2271 7.6308,13.3381 C7.6438,13.4491 7.6498,13.5511 7.6498,13.6431 C7.6498,13.9131 7.6088,14.1211 7.5258,14.2721 C7.4428,14.4251 7.3308,14.5261 7.1908,14.5841 C7.0498,14.6391 6.8838,14.6461 6.6938,14.6051 C6.5038,14.5631 6.3028,14.4871 6.0928,14.3701" id="Fill-3"></path>
            <path d="M13.0234,13.8936 L13.3584,13.7076 C13.6574,13.5416 13.9024,13.3476 14.0904,13.1246 C14.2874,12.9006 14.4334,12.6406 14.5284,12.3476 C14.6224,12.0536 14.6694,11.7726 14.6694,11.5006 C14.6694,11.2356 14.6264,11.0086 14.5404,10.8206 C14.4554,10.6316 14.3224,10.5226 14.1424,10.4926 C14.0484,10.4736 13.9314,10.4856 13.7924,10.5286 C13.6514,10.5696 13.5144,10.6296 13.3774,10.7056 L13.0234,10.9016 L13.0234,13.8936 Z M12.2004,15.2046 L12.2004,10.5076 L13.4094,9.8356 C13.5634,9.7516 13.7344,9.6696 13.9234,9.5936 C14.1124,9.5166 14.2924,9.4726 14.4634,9.4626 C14.7324,9.4576 14.9524,9.5526 15.1204,9.7466 C15.2904,9.9316 15.3974,10.1466 15.4404,10.3906 C15.4614,10.5136 15.4794,10.6246 15.4924,10.7246 C15.5054,10.8236 15.5094,10.9146 15.5054,10.9956 C15.5134,11.2876 15.4804,11.5766 15.4054,11.8636 C15.3304,12.1516 15.2374,12.4176 15.1294,12.6646 C15.0194,12.9106 14.9024,13.1246 14.7784,13.3096 C14.6544,13.4936 14.5464,13.6276 14.4564,13.7096 C14.1664,14.0326 13.8274,14.2986 13.4414,14.5136 L12.2004,15.2046 Z" id="Fill-5"></path>
            <path d="M10.5,17.4355 L10.5,10.3285 L17,6.7165 L17,13.8235 L10.5,17.4355 Z M3,6.7165 L9.5,10.3285 L9.5,17.4355 L3,13.8235 L3,6.7165 Z M10,2.2875 L16.456,5.8745 L10,9.4615 L3.544,5.8745 L10,2.2875 Z M18.486,4.7145 L10.486,0.2695 C10.183,0.1015 9.817,0.1015 9.514,0.2695 L1.514,4.7145 C1.197,4.8915 1,5.2255 1,5.5885 L1,14.4115 C1,14.7745 1.197,15.1085 1.514,15.2855 L9.514,19.7305 C9.666,19.8145 9.833,19.8565 10,19.8565 C10.167,19.8565 10.334,19.8145 10.486,19.7305 L18.486,15.2855 C18.803,15.1085 19,14.7745 19,14.4115 L19,5.5885 C19,5.2255 18.803,4.8915 18.486,4.7145 Z" id="Fill-7"></path>
        </g>
    </g>
</svg>