<?xml version="1.0" encoding="UTF-8" standalone="no"?>
<svg width="20px" height="20px" viewBox="0 0 20 20" version="1.1" xmlns="http://www.w3.org/2000/svg" xmlns:xlink="http://www.w3.org/1999/xlink">
    <!-- Generator: Sketch 49.1 (51147) - http://www.bohemiancoding.com/sketch -->
    <title>icons/accent/download-all</title>
    <desc>Created with Sketch.</desc>
    <defs></defs>
    <g id="icons/accent/download-all" stroke="none" stroke-width="1" fill="none" fill-rule="evenodd">
        <g id="Group" transform="translate(0.000000, 9.000000)" fill="#E60000">
            <path d="M5.5,0 C2.462,0 0,2.462 0,5.5 C0,8.538 2.462,11 5.5,11 C8.538,11 11,8.538 11,5.5 C11,2.462 8.538,0 5.5,0 M5.5,1 C7.981,1 10,3.019 10,5.5 C10,7.981 7.981,10 5.5,10 C3.019,10 1,7.981 1,5.5 C1,3.019 3.019,1 5.5,1" id="Fill-6"></path>
            <polygon id="Fill-3" points="5.4995 9 2.2925 5.707 2.9995 5 4.9995 7.068 4.9995 2 5.9995 2 5.9995 7.068 7.9995 5 8.7065 5.707"></polygon>
        </g>
        <path d="M12,2 L6,2 C5.448,2 5,2.447 5,3 L5,8.025 C5.166,8.013 5.331,8 5.5,8 C6.017,8 6.518,8.066 7,8.181 L7,4 L11,4 L11,8 L15,8 L15,16 L11.819,16 C11.648,16.721 11.36,17.395 10.972,18 L16,18 C16.552,18 17,17.553 17,17 L17,7 L12,2 Z" id="Fill-4" fill="#787D8B"></path>
    </g>
</svg>