<?xml version="1.0" encoding="UTF-8" standalone="no"?>
<svg width="20px" height="20px" viewBox="0 0 20 20" version="1.1" xmlns="http://www.w3.org/2000/svg" xmlns:xlink="http://www.w3.org/1999/xlink">
    <!-- Generator: Sketch 47.1 (45422) - http://www.bohemiancoding.com/sketch -->
    <title>icons/accent/iso-walking</title>
    <desc>Created with Sketch.</desc>
    <defs></defs>
    <g id="Symbols" stroke="none" stroke-width="1" fill="none" fill-rule="evenodd">
        <g id="icons/accent/iso-walking" fill="#3399CC">
            <path d="M14.6646,9 L12.8226,7.598 L11.8946,5.553 C11.7766,5.315 11.5686,5.135 11.3166,5.052 L8.3166,4.052 C8.1106,3.983 7.8896,3.983 7.6836,4.052 L4.5126,5.67 C4.2066,5.771 3.9996,6.059 3.9996,6.381 L3.9996,9.25 C3.9996,9.665 4.3356,10 4.7496,10 C5.1646,10 5.4996,9.665 5.4996,9.25 L5.4996,6.922 L7.0186,6.395 C7.0146,6.434 6.9996,6.467 6.9996,6.508 L6.2686,18.068 C6.1676,18.47 6.4126,18.877 6.8136,18.978 C6.8746,18.993 6.9366,19 6.9976,19 C7.3326,19 7.6386,18.773 7.7236,18.432 L9.0296,13.674 L9.9996,14.414 L10.2496,18.25 C10.2496,18.664 10.5856,19 10.9996,19 C11.4146,19 11.7496,18.664 11.7496,18.25 L11.9996,14 C11.9996,13.734 11.8946,13.48 11.7066,13.293 L9.9146,10.45 L10.7496,7.407 L11.5926,8.492 C11.6646,8.637 11.7836,8.756 11.9286,8.828 L13.9936,10.342 C14.1016,10.395 14.2156,10.42 14.3286,10.42 C14.6036,10.42 14.8686,10.27 14.9996,10.006 C15.1856,9.635 15.0356,9.186 14.6646,9" id="Fill-3"></path>
            <path d="M10.5005,4.001 C11.3295,4.001 12.0005,3.329 12.0005,2.5 C12.0005,1.672 11.3295,1 10.5005,1 C9.6715,1 9.0005,1.672 9.0005,2.5 C9.0005,3.329 9.6715,4.001 10.5005,4.001" id="Fill-5"></path>
        </g>
    </g>
</svg>