<?xml version="1.0" encoding="UTF-8" standalone="no"?>
<svg width="12px" height="12px" viewBox="0 0 12 12" version="1.1" xmlns="http://www.w3.org/2000/svg" xmlns:xlink="http://www.w3.org/1999/xlink">
    <!-- Generator: Sketch 48.2 (47327) - http://www.bohemiancoding.com/sketch -->
    <title>icons/accent/map-xs</title>
    <desc>Created with Sketch.</desc>
    <defs></defs>
    <g id="Symbols" stroke="none" stroke-width="1" fill="none" fill-rule="evenodd">
        <g id="icons/accent/map-xs" fill="#E60000">
            <path d="M6,7 C4.895,7 4,6.104 4,5 C4,3.896 4.895,3 6,3 C7.104,3 8,3.896 8,5 C8,6.104 7.104,7 6,7 M9.535,1.463 C8.59,0.52 7.334,0 6,0 C4.666,0 3.411,0.52 2.463,1.463 C1.52,2.408 1,3.664 1,5 C1,8.333 5.383,11.727 5.383,11.727 C5.539,11.9 5.765,12 6,12 C6.235,12 6.461,11.9 6.617,11.726 C6.617,11.726 11,8.333 11,5 C11,3.664 10.48,2.408 9.535,1.463" id="Fill-3"></path>
        </g>
    </g>
</svg>