<?xml version="1.0" encoding="UTF-8" standalone="no"?>
<svg width="20px" height="20px" viewBox="0 0 20 20" version="1.1" xmlns="http://www.w3.org/2000/svg" xmlns:xlink="http://www.w3.org/1999/xlink">
    <!-- Generator: Sketch 48.2 (47327) - http://www.bohemiancoding.com/sketch -->
    <title>icons/accent/scope</title>
    <desc>Created with Sketch.</desc>
    <defs></defs>
    <g id="Symbols" stroke="none" stroke-width="1" fill="none" fill-rule="evenodd">
        <g id="icons/accent/scope" fill="#E60000">
            <path d="M8.9995,15 C5.6865,15 2.9995,12.314 2.9995,9 C2.9995,5.686 5.6865,3 8.9995,3 C12.3125,3 14.9995,5.686 14.9995,9 C14.9995,12.314 12.3125,15 8.9995,15 M19.7075,18.293 L16.7075,15.293 C16.4485,15.034 16.0855,14.963 15.7545,15.048 L14.9905,14.283 C16.2365,12.873 16.9995,11.025 16.9995,9 C16.9995,4.589 13.4105,1 8.9995,1 C4.5885,1 0.9995,4.589 0.9995,9 C0.9995,13.411 4.5885,17 8.9995,17 C11.0255,17 12.8725,16.236 14.2835,14.99 L15.0475,15.755 C14.9635,16.086 15.0345,16.448 15.2925,16.707 L18.2925,19.707 C18.4885,19.902 18.7445,20 18.9995,20 C19.2555,20 19.5115,19.902 19.7075,19.707 C20.0975,19.316 20.0975,18.684 19.7075,18.293" id="Fill-3"></path>
            <path d="M10.667,12.666 C10.667,12.666 11.667,12.666 11.667,11.666 L11.667,10.666 C11.667,10.666 10.667,10.666 10.667,9.666 L8.667,9.666 C7.667,9.666 8,9 8,9 C7,9 7,8 7,8 L7,7 L8,7 C8,7 9,7 9,6 C9,5 10.333,5 10.333,5 L10.333,4.203 C9.906,4.084 9.464,4 9,4 C7.358,4 5.912,4.806 5,6.03 L5,8 C5,8 5,9 6,9 C7,9 7,10 7,10 C7.667,10.334 7.667,11.666 7.667,11.666 C7.667,11.666 7.667,12.666 8.667,12.666 L8.667,13.666 L8.667,13.967 C8.779,13.974 8.886,14 9,14 C9.253,14 9.497,13.962 9.74,13.925 C9.839,13.355 10.078,12.666 10.667,12.666" id="Fill-6"></path>
            <path d="M13.667,7.666 C13.709,7.666 13.748,7.652 13.789,7.643 C13.583,6.921 13.225,6.27 12.743,5.721 C12.503,5.82 12.333,6.058 12.333,6.334 L12.333,7 C12.333,7.369 12.632,7.666 13,7.666 L13.667,7.666 Z" id="Fill-8"></path>
        </g>
    </g>
</svg>