<?xml version="1.0" encoding="UTF-8" standalone="no"?>
<svg width="20px" height="20px" viewBox="0 0 20 20" version="1.1" xmlns="http://www.w3.org/2000/svg" xmlns:xlink="http://www.w3.org/1999/xlink">
    <!-- Generator: Sketch 47.1 (45422) - http://www.bohemiancoding.com/sketch -->
    <title>icons/accent/visible</title>
    <desc>Created with Sketch.</desc>
    <defs></defs>
    <g id="Symbols" stroke="none" stroke-width="1" fill="none" fill-rule="evenodd">
        <g id="icons/accent/visible">
            <path d="M2.014,10 C3.838,12.425 6.731,14 10,14 C13.269,14 16.162,12.425 17.986,10 C16.162,7.575 13.269,6 10,6 C6.731,6 3.838,7.575 2.014,10 Z" id="Fill-3" fill="#FFFFFF"></path>
            <path d="M9.9863,12.999 C8.3293,12.999 6.9863,11.656 6.9863,9.999 C6.9863,8.342 8.3293,6.999 9.9863,6.999 C11.6433,6.999 12.9863,8.342 12.9863,9.999 C12.9863,11.656 11.6433,12.999 9.9863,12.999 M18.7713,9.398 C16.6683,6.603 13.4653,5 9.9863,5 C6.5073,5 3.3043,6.603 1.2013,9.398 C0.9333,9.755 0.9333,10.245 1.2013,10.602 C3.3043,13.396 6.5073,15 9.9863,15 C13.4653,15 16.6683,13.396 18.7713,10.602 C19.0393,10.245 19.0393,9.755 18.7713,9.398" id="Fill-1" fill="#3399CC"></path>
            <path d="M10.9873,9.999 C10.9873,10.552 10.5393,11 9.9863,11 C9.4333,11 8.9853,10.552 8.9853,9.999 C8.9853,9.446 9.4333,8.998 9.9863,8.998 C10.5393,8.998 10.9873,9.446 10.9873,9.999" id="Fill-3" fill="#3399CC"></path>
        </g>
    </g>
</svg>