<?xml version="1.0" encoding="UTF-8" standalone="no"?>
<svg width="20px" height="20px" viewBox="0 0 20 20" version="1.1" xmlns="http://www.w3.org/2000/svg" xmlns:xlink="http://www.w3.org/1999/xlink">
    <!-- Generator: Sketch 48.2 (47327) - http://www.bohemiancoding.com/sketch -->
    <title>logo-yoigo</title>
    <desc>Created with Sketch.</desc>
    <defs>
        <polygon id="path-1" points="0.0001 0 8.92 0 8.92 11.9998 0.0001 11.9998"></polygon>
    </defs>
    <g id="Symbols" stroke="none" stroke-width="1" fill="none" fill-rule="evenodd">
        <g id="logo-yoigo">
            <g id="Page-1" transform="translate(6.000000, 4.000000)">
                <mask id="mask-2" fill="white">
                    <use xlink:href="#path-1"></use>
                </mask>
                <g id="Clip-2"></g>
                <path d="M8.9131,5.0088 C8.9131,3.4818 8.8821,1.8118 8.7591,0.6708 C8.7301,0.4068 8.4711,0.2548 8.1971,0.2548 L6.1231,0.2318 C5.7821,0.2318 5.5351,0.4308 5.5351,0.7848 L5.5571,5.2128 C5.4201,5.4258 4.9621,5.5788 4.5991,5.5788 C3.7081,5.5788 3.4891,5.3038 3.4191,4.3978 C3.3411,3.3758 3.4361,1.8398 3.5691,0.6238 C3.5991,0.3548 3.3901,0.1848 3.1171,0.1538 L1.1541,-0.0002 L1.0951,-0.0002 C0.7791,-0.0002 0.6001,0.1148 0.4741,0.4018 L0.4751,0.3998 C0.2341,0.9548 0.0001,2.5628 0.0001,4.2038 C0.0001,6.4688 0.8671,8.1478 3.4971,8.1478 C4.3041,8.1478 5.0241,8.0248 5.5691,7.7548 C5.5691,9.0678 4.6111,9.5228 3.3901,9.4398 C2.5281,9.3798 1.9681,9.1548 1.3041,8.7768 C1.1881,8.7148 1.0591,8.6808 0.9271,8.6748 C0.6521,8.6748 0.4241,8.8078 0.3131,9.1118 C0.1831,9.4718 0.0111,10.2868 0.0111,10.5208 C0.0111,10.8088 0.0951,11.0588 0.3461,11.2088 C1.2291,11.7308 2.7691,11.9998 3.9871,11.9998 C6.5801,11.9998 8.5491,11.1808 8.8451,7.8588 L8.9201,7.0078 L8.9131,5.0088 Z" id="Fill-1" fill="#AE3F97" mask="url(#mask-2)"></path>
            </g>
        </g>
    </g>
</svg>