<?xml version="1.0" encoding="UTF-8" standalone="no"?>
<svg width="20px" height="20px" viewBox="0 0 20 20" version="1.1" xmlns="http://www.w3.org/2000/svg" xmlns:xlink="http://www.w3.org/1999/xlink">
    <!-- Generator: Sketch 48.2 (47327) - http://www.bohemiancoding.com/sketch -->
    <title>icons/orange-neg</title>
    <desc>Created with Sketch.</desc>
    <defs>
        <polygon id="path-1" points="0 12 12 12 12 0 0 0"></polygon>
    </defs>
    <g id="Symbols" stroke="none" stroke-width="1" fill="none" fill-rule="evenodd">
        <g id="icons/orange-neg">
            <g id="Page-1" transform="translate(4.000000, 4.000000)">
                <g id="Fill-1">
                    <use fill="#FF6800" fill-rule="evenodd" xlink:href="#path-1"></use>
                    <path stroke="#FFFFFF" stroke-width="0.5" d="M-0.25,12.25 L-0.25,-0.25 L12.25,-0.25 L12.25,12.25 L-0.25,12.25 Z"></path>
                </g>
                <g id="Group-16" transform="translate(0.000000, 8.000000)" fill="#FFFFFF">
                    <path d="M4.7075,2.8379 C4.5375,2.9489 4.3545,3.0039 4.1555,3.0039 C3.8435,3.0039 3.6595,2.7969 3.6595,2.5189 C3.6595,2.1449 4.0025,1.9459 4.7115,1.8669 L4.7115,1.7739 C4.7115,1.6519 4.6205,1.5819 4.4495,1.5819 C4.2795,1.5819 4.1415,1.6499 4.0415,1.7739 L3.7455,1.6049 C3.9005,1.3869 4.1385,1.2779 4.4575,1.2779 C4.8925,1.2779 5.1365,1.4669 5.1365,1.7739 L5.1365,2.9839 L4.7475,2.9839 L4.7075,2.8379 Z M4.0925,2.4859 C4.0925,2.5989 4.1625,2.7039 4.2905,2.7039 C4.4285,2.7039 4.5625,2.6469 4.6975,2.5269 L4.6975,2.1319 C4.2865,2.1839 4.0925,2.2889 4.0925,2.4859 Z" id="Fill-2"></path>
                    <path d="M5.4839,1.3584 L5.8479,1.3084 L5.8879,1.5054 C6.0929,1.3564 6.2559,1.2764 6.4619,1.2764 C6.8049,1.2764 6.9819,1.4584 6.9819,1.8194 L6.9819,2.9824 L6.5429,2.9824 L6.5429,1.8964 C6.5429,1.6914 6.4899,1.5984 6.3309,1.5984 C6.1999,1.5984 6.0679,1.6594 5.9199,1.7844 L5.9199,2.9824 L5.4839,2.9824" id="Fill-4"></path>
                    <path d="M9.8931,3.0137 C9.4011,3.0137 9.1061,2.6987 9.1061,2.1487 C9.1061,1.5917 9.4041,1.2757 9.8851,1.2757 C10.3671,1.2757 10.6541,1.5827 10.6541,2.1257 C10.6541,2.1547 10.6501,2.1837 10.6501,2.2117 L9.5391,2.2117 C9.5421,2.5287 9.6741,2.6887 9.9331,2.6887 C10.0991,2.6887 10.2081,2.6207 10.3101,2.4747 L10.6331,2.6537 C10.4911,2.8897 10.2371,3.0137 9.8931,3.0137 M10.2221,1.9277 C10.2221,1.7037 10.0951,1.5737 9.8851,1.5737 C9.6881,1.5737 9.5641,1.7017 9.5461,1.9277" id="Fill-6"></path>
                    <path d="M1.4771,3.0322 C1.0421,3.0322 0.6501,2.7552 0.6501,2.1512 C0.6501,1.5472 1.0421,1.2692 1.4771,1.2692 C1.9121,1.2692 2.3031,1.5472 2.3031,2.1512 C2.3031,2.7552 1.9121,3.0322 1.4771,3.0322 M1.4771,1.6402 C1.1491,1.6402 1.0881,1.9372 1.0881,2.1512 C1.0881,2.3652 1.1491,2.6612 1.4771,2.6612 C1.8051,2.6612 1.8661,2.3652 1.8661,2.1512 C1.8661,1.9372 1.8051,1.6402 1.4771,1.6402" id="Fill-8"></path>
                    <path d="M2.605,1.3135 L3.023,1.3135 L3.023,1.5095 C3.103,1.4045 3.299,1.2795 3.483,1.2795 L3.539,1.2825 L3.539,1.6945 L3.519,1.6945 C3.328,1.6945 3.119,1.7235 3.051,1.8735 L3.051,2.9835 L2.605,2.9835" id="Fill-10"></path>
                    <path d="M8.0576,2.625 C8.3916,2.622 8.4196,2.283 8.4196,2.062 C8.4196,1.801 8.2916,1.588 8.0556,1.588 C7.8966,1.588 7.7206,1.703 7.7206,2.08 C7.7206,2.286 7.7356,2.627 8.0576,2.625 M8.8416,1.308 L8.8416,2.889 C8.8416,3.168 8.8206,3.627 8.0246,3.633 C7.6966,3.635 7.3916,3.503 7.3306,3.217 L7.7646,3.146 C7.7836,3.229 7.8336,3.311 8.0786,3.311 C8.3076,3.311 8.4166,3.201 8.4166,2.94 L8.4166,2.746 L8.4106,2.74 C8.3406,2.864 8.2346,2.983 7.9786,2.983 C7.5896,2.983 7.2836,2.713 7.2836,2.148 C7.2836,1.59 7.5996,1.277 7.9546,1.276 C8.2876,1.276 8.4116,1.428 8.4396,1.508 L8.4346,1.507 L8.4706,1.308" id="Fill-12"></path>
                    <path d="M10.8271,0.7539 L10.6541,0.7539 L10.6541,1.2319 L10.5631,1.2319 L10.5631,0.7539 L10.3901,0.7539 L10.3901,0.6809 L10.8271,0.6809 L10.8271,0.7539 Z M11.5461,1.2319 L11.4551,1.2319 L11.4551,0.7719 L11.4521,0.7719 L11.2711,1.2319 L11.2141,1.2319 L11.0341,0.7719 L11.0301,0.7719 L11.0301,1.2319 L10.9391,1.2319 L10.9391,0.6809 L11.0801,0.6809 L11.2441,1.0999 L11.4071,0.6809 L11.5461,0.6809 L11.5461,1.2319 Z" id="Fill-14"></path>
                </g>
            </g>
        </g>
    </g>
</svg>