<?xml version="1.0" encoding="utf-8"?>
<!-- Generator: Adobe Illustrator 16.0.0, SVG Export Plug-In . SVG Version: 6.00 Build 0)  -->
<!DOCTYPE svg PUBLIC "-//W3C//DTD SVG 1.0//EN" "http://www.w3.org/TR/2001/REC-SVG-20010904/DTD/svg10.dtd">
<svg version="1.0" id="Layer_1" xmlns="http://www.w3.org/2000/svg" xmlns:xlink="http://www.w3.org/1999/xlink" x="0px" y="0px"
	 width="20px" height="20px" viewBox="0 0 20 20" enable-background="new 0 0 20 20" xml:space="preserve">
<title>logo-vodafone</title>
<desc>Created with Sketch.</desc>
<path fill="#AEB1B9" d="M10,0.5c-5.238,0-9.5,4.262-9.5,9.5c0,5.239,4.262,9.5,9.5,9.5s9.5-4.262,9.5-9.5
	C19.5,4.761,15.238,0.5,10,0.5z M10.434,5.672L10.48,6.01l0.332,0.081c2.39,0.581,3.604,1.969,3.612,4.124
	c0.005,2.063-1.658,4.294-4.354,4.303h-0.015c-2.175,0-4.529-1.908-4.54-4.991C5.508,7.608,6.516,5.531,8.08,4.234
	c1.034-0.855,2.34-1.48,3.633-1.767c-0.8,0.774-1.297,1.852-1.293,2.991C10.42,5.542,10.429,5.63,10.434,5.672z M10,18.5
	c-4.687,0-8.5-3.813-8.5-8.5S5.313,1.5,10,1.5c0.389,0,0.769,0.036,1.144,0.086C9.814,1.938,8.499,2.59,7.442,3.464
	C5.629,4.967,4.507,7.291,4.514,9.53c0.013,3.698,2.886,5.987,5.54,5.987h0.019c3.314-0.011,5.358-2.763,5.351-5.307
	c-0.009-2.517-1.388-4.236-3.995-4.991c0.101-1.315,1.074-2.472,2.364-2.816C16.579,3.801,18.5,6.677,18.5,10
	C18.5,14.687,14.687,18.5,10,18.5z"/>
</svg>
