<?xml version="1.0" encoding="UTF-8" standalone="no"?>
<svg width="40px" height="24px" viewBox="0 0 40 24" version="1.1" xmlns="http://www.w3.org/2000/svg" xmlns:xlink="http://www.w3.org/1999/xlink">
    <!-- Generator: Sketch 47.1 (45422) - http://www.bohemiancoding.com/sketch -->
    <title>logos/carrefour</title>
    <desc>Created with Sketch.</desc>
    <defs></defs>
    <g id="Symbols" stroke="none" stroke-width="1" fill="none" fill-rule="evenodd">
        <g id="Layout/menu" transform="translate(-16.000000, -36.000000)">
            <g id="logos/carrefour" transform="translate(12.000000, 24.000000)">
                <g id="Group" transform="translate(4.800000, 12.000000)">
                    <g id="Page-1">
                        <path d="M18.8337333,0.105818182 C20.2096,-0.190909091 21.6784,0.156 22.8366667,0.902181818 C23.5212,1.32981818 24.0992,1.908 24.582,2.54727273 C24.7769333,2.86581818 25.0262667,3.228 24.8902667,3.60981818 C24.5298667,3.66218182 24.1762667,3.52472727 23.8136,3.55309091 C23.1154667,3.56836364 22.4672,4.00909091 22.1521333,4.60254545 C21.7758667,5.30509091 21.7146667,6.132 21.7305333,6.91309091 C21.7464,7.61563636 21.964,8.33345455 22.4445333,8.87672727 C23.0248,9.53563636 23.9110667,9.876 24.7928,9.95454545 C25.9737333,10.0352727 27.2453333,9.76690909 28.1338667,8.96181818 C28.9521333,8.21563636 29.2830667,7.10072727 29.2989333,6.036 C29.3216,4.82072727 29.0065333,3.61854545 28.5758667,2.47309091 C28.3582667,1.85127273 27.8845333,1.35163636 27.6057333,0.758181818 C27.6284,0.705818182 27.6805333,0.620727273 27.7122667,0.568363636 C27.8324,0.568363636 27.9752,0.533454545 28.0568,0.642545455 C31.3910667,3.90872727 34.7230667,7.17490909 38.0482667,10.4389091 C38.4109333,10.8163636 38.8234667,11.2592727 38.7781333,11.8090909 C38.6353333,12.3654545 38.1910667,12.7865455 37.7853333,13.1836364 C34.6482667,16.2272727 31.5112,19.26 28.3741333,22.3014545 C28.1542667,22.4978182 27.9661333,22.7727273 27.6510667,22.8098182 C27.6284,22.7574545 27.5830667,22.6636364 27.5536,22.6134545 C27.6216,22.1792727 27.8686667,21.8018182 28.0432,21.4047273 C28.2381333,20.9770909 28.4648,20.5712727 28.5985333,20.1218182 C28.7866667,19.4716364 29.0201333,18.8192727 29.0496,18.1298182 C29.0813333,17.3334545 29.0201333,16.5370909 28.9068,15.7472727 C28.7798667,14.9443636 28.3288,14.1981818 27.6442667,13.7203636 C26.7194667,13.0549091 25.5,12.8018182 24.3644,12.996 C23.392,13.1923636 22.6190667,13.9014545 22.1430667,14.7130909 C21.6172,15.588 21.5197333,16.6527273 21.7668,17.6236364 C21.9028,18.1232727 22.0909333,18.6316364 22.4218667,19.044 C22.7981333,19.5130909 23.5053333,19.7749091 24.0992,19.5567273 C24.2873333,19.5 24.4754667,19.428 24.6726667,19.4781818 C24.9945333,19.7596364 24.8064,20.2243636 24.6794667,20.556 C24.2510667,21.3676364 23.6254667,22.1203636 22.7845333,22.5698182 C21.7146667,23.1501818 20.4521333,23.4163636 19.2326667,23.2287273 C17.8930667,23.0629091 16.6826667,22.3101818 15.8848,21.2738182 C14.7265333,19.8032727 14.2142667,17.9705455 13.8765333,16.1749091 C13.5524,14.2134545 13.4458667,12.2149091 13.5750667,10.2381818 C13.7246667,8.34 14.0488,6.45054545 14.7038667,4.65272727 C15.0937333,3.55309091 15.6354667,2.48836364 16.4197333,1.59818182 C17.0430667,0.886909091 17.8772,0.308727273 18.8337333,0.105818182" id="Fill-1" fill="#00467E"></path>
                        <path d="M10.5653867,1.10509091 C10.7693867,0.930545455 10.9348533,0.714545455 11.17512,0.583636364 C11.2657867,0.598909091 11.3564533,0.620727273 11.4448533,0.649090909 C11.4833867,0.945818182 11.25672,1.17054545 11.10712,1.40836364 C10.7761867,1.92981818 10.46112,2.46654545 10.12112,2.988 C9.18952,4.44981818 8.73618667,6.132 8.41432,7.80327273 C8.26245333,8.75236364 8.13552,9.708 8.10605333,10.6723636 C7.97005333,12.5181818 8.14232,14.3792727 8.56392,16.1836364 C8.96285333,17.748 9.52725333,19.2905455 10.39312,20.6803636 C10.7149867,21.2738182 11.10032,21.8389091 11.45392,22.4170909 C11.54232,22.5261818 11.52192,22.6723636 11.5128533,22.8010909 C11.2113867,22.8752727 11.0096533,22.6352727 10.82152,22.4541818 C7.45778667,19.2687273 4.07365333,16.1094545 0.71672,12.924 C0.36992,12.5683636 -0.0358133333,12.1407273 0.00272,11.6192727 C0.13872,10.932 0.755253333,10.4825455 1.23578667,10.0134545 C4.34338667,7.03527273 7.45778667,4.07454545 10.5653867,1.10509091" id="Fill-3" fill="#E13309"></path>
                    </g>
                </g>
            </g>
        </g>
    </g>
</svg>