<?xml version="1.0" encoding="UTF-8" standalone="no"?>
<svg width="20px" height="20px" viewBox="0 0 20 20" version="1.1" xmlns="http://www.w3.org/2000/svg" xmlns:xlink="http://www.w3.org/1999/xlink">
    <!-- Generator: Sketch 47.1 (45422) - http://www.bohemiancoding.com/sketch -->
    <title>icons/carrefour-neg</title>
    <desc>Created with Sketch.</desc>
    <defs></defs>
    <g id="Symbols" stroke="none" stroke-width="1" fill="none" fill-rule="evenodd">
        <g id="icons/carrefour-neg" fill="#FFFFFF">
            <path d="M11.5152778,5.37590909 C11.8005,5.55409091 12.0413333,5.795 12.2425,6.06136364 C12.3237222,6.19409091 12.4276111,6.345 12.3709444,6.50409091 C12.2207778,6.52590909 12.0734444,6.46863636 11.9223333,6.48045455 C11.6314444,6.48681818 11.3613333,6.67045455 11.2300556,6.91772727 C11.0732778,7.21045455 11.0477778,7.555 11.0543889,7.88045455 C11.061,8.17318182 11.1516667,8.47227273 11.3518889,8.69863636 C11.5936667,8.97318182 11.9629444,9.115 12.3303333,9.14772727 C12.8223889,9.18136364 13.3522222,9.06954545 13.7224444,8.73409091 C14.0633889,8.42318182 14.2012778,7.95863636 14.2078889,7.515 C14.2173333,7.00863636 14.0860556,6.50772727 13.9066111,6.03045455 C13.8159444,5.77136364 13.6185556,5.56318182 13.5023889,5.31590909 C13.5118333,5.29409091 13.5335556,5.25863636 13.5467778,5.23681818 C13.5968333,5.23681818 13.6563333,5.22227273 13.6903333,5.26772727 C15.0796111,6.62863636 16.4679444,7.98954545 17.8534444,9.34954545 C18.0045556,9.50681818 18.1764444,9.69136364 18.1575556,9.92045455 C18.0980556,10.1522727 17.9129444,10.3277273 17.7438889,10.4931818 C16.4367778,11.7613636 15.1296667,13.025 13.8225556,14.2922727 C13.7309444,14.3740909 13.6525556,14.4886364 13.5212778,14.5040909 C13.5118333,14.4822727 13.4929444,14.4431818 13.4806667,14.4222727 C13.509,14.2413636 13.6119444,14.0840909 13.6846667,13.9186364 C13.7658889,13.7404545 13.8603333,13.5713636 13.9160556,13.3840909 C13.9944444,13.1131818 14.0917222,12.8413636 14.104,12.5540909 C14.1172222,12.2222727 14.0917222,11.8904545 14.0445,11.5613636 C13.9916111,11.2268182 13.8036667,10.9159091 13.5184444,10.7168182 C13.1331111,10.4395455 12.625,10.3340909 12.1518333,10.415 C11.7466667,10.4968182 11.4246111,10.7922727 11.2262778,11.1304545 C11.0071667,11.495 10.9665556,11.9386364 11.0695,12.3431818 C11.1261667,12.5513636 11.2045556,12.7631818 11.3424444,12.935 C11.4992222,13.1304545 11.7938889,13.2395455 12.0413333,13.1486364 C12.1197222,13.125 12.1981111,13.095 12.2802778,13.1159091 C12.4143889,13.2331818 12.336,13.4268182 12.2831111,13.565 C12.1046111,13.9031818 11.8439444,14.2168182 11.4935556,14.4040909 C11.0477778,14.6459091 10.5217222,14.7568182 10.0136111,14.6786364 C9.45544444,14.6095455 8.95111111,14.2959091 8.61866667,13.8640909 C8.13605556,13.2513636 7.92261111,12.4877273 7.78188889,11.7395455 C7.64683333,10.9222727 7.60244444,10.0895455 7.65627778,9.26590909 C7.71861111,8.475 7.85366667,7.68772727 8.12661111,6.93863636 C8.28905556,6.48045455 8.51477778,6.03681818 8.84155556,5.66590909 C9.10127778,5.36954545 9.44883333,5.12863636 9.84738889,5.04409091 C10.4206667,4.92045455 11.0326667,5.065 11.5152778,5.37590909 Z" id="Fill-1"></path>
            <path d="M6.40224444,5.46045455 C6.48724444,5.38772727 6.55618889,5.29772727 6.6563,5.24318182 C6.69407778,5.24954545 6.73185556,5.25863636 6.76868889,5.27045455 C6.78474444,5.39409091 6.6903,5.48772727 6.62796667,5.58681818 C6.49007778,5.80409091 6.3588,6.02772727 6.21713333,6.245 C5.82896667,6.85409091 5.64007778,7.555 5.50596667,8.25136364 C5.44268889,8.64681818 5.3898,9.045 5.37752222,9.44681818 C5.32085556,10.2159091 5.39263333,10.9913636 5.5683,11.7431818 C5.73452222,12.395 5.96968889,13.0377273 6.33046667,13.6168182 C6.46457778,13.8640909 6.62513333,14.0995455 6.77246667,14.3404545 C6.8093,14.3859091 6.8008,14.4468182 6.79702222,14.5004545 C6.67141111,14.5313636 6.58735556,14.4313636 6.50896667,14.3559091 C5.10741111,13.0286364 3.69735556,11.7122727 2.29863333,10.385 C2.15413333,10.2368182 1.98507778,10.0586364 2.00113333,9.84136364 C2.0578,9.555 2.31468889,9.36772727 2.51491111,9.17227273 C3.80974444,7.93136364 5.10741111,6.69772727 6.40224444,5.46045455" id="Fill-3"></path>
        </g>
    </g>
</svg>