<?xml version="1.0" encoding="UTF-8" standalone="no"?>
<svg width="20px" height="20px" viewBox="0 0 20 20" version="1.1" xmlns="http://www.w3.org/2000/svg" xmlns:xlink="http://www.w3.org/1999/xlink">
    <!-- Generator: Sketch 48.2 (47327) - http://www.bohemiancoding.com/sketch -->
    <title>icons/color/genders men</title>
    <desc>Created with Sketch.</desc>
    <defs></defs>
    <g id="Symbols" stroke="none" stroke-width="1" fill="none" fill-rule="evenodd">
        <g id="icons/color/genders-men" fill="#008695">
            <g id="Group" transform="translate(6.000000, 1.000000)">
                <path d="M6,2 C6,0.896 5.104,0 4,0 C2.896,0 2,0.896 2,2 C2,3.104 2.896,4 4,4 C5.104,4 6,3.104 6,2 Z" id="Fill-1"></path>
                <path d="M7,6 C7.039,5.447 6.626,5 6.073,5 L1.927,5 C1.374,5 0.961,5.447 1.003,6 L0,12 L1.465,12 L1.85,17 C1.892,17.553 2.374,18 2.927,18 L5.073,18 C5.626,18 6.108,17.553 6.15,17 L6.535,12 L8,12 L7,6 Z" id="Fill-5"></path>
            </g>
        </g>
    </g>
</svg>