<?xml version="1.0" encoding="UTF-8" standalone="no"?>
<svg width="20px" height="20px" viewBox="0 0 20 20" version="1.1" xmlns="http://www.w3.org/2000/svg" xmlns:xlink="http://www.w3.org/1999/xlink">
    <!-- Generator: Sketch 47.1 (45422) - http://www.bohemiancoding.com/sketch -->
    <title>icons/color/genders</title>
    <desc>Created with Sketch.</desc>
    <defs></defs>
    <g id="Symbols" stroke="none" stroke-width="1" fill="none" fill-rule="evenodd">
        <g id="icons/color/genders">
            <g id="Group-2" transform="translate(1.000000, 1.000000)" fill="#F97B72">
                <path d="M6,2 C6,0.896 5.104,0 4,0 C2.896,0 2,0.896 2,2 C2,3.104 2.896,4 4,4 C5.104,4 6,3.104 6,2 Z" id="Fill-3"></path>
                <path d="M8,12 L6.15,6 C6.108,5.447 5.626,5 5.073,5 L2.927,5 C2.374,5 1.892,5.447 1.85,6 L0,12 L1.388,12 L1.003,17 C0.961,17.553 1.374,18 1.927,18 L6.073,18 C6.626,18 7.039,17.553 6.997,17 L6.612,12 L8,12 Z" id="Fill-7"></path>
            </g>
            <path d="M17,3 C17,1.896 16.104,1 15,1 C13.896,1 13,1.896 13,3 C13,4.104 13.896,5 15,5 C16.104,5 17,4.104 17,3 Z" id="Fill-1" fill="#008695"></path>
            <path d="M18,7 C18.039,6.447 17.626,6 17.073,6 L12.927,6 C12.374,6 11.961,6.447 12.003,7 L11,13 L12.465,13 L12.85,18 C12.892,18.553 13.374,19 13.927,19 L16.073,19 C16.626,19 17.108,18.553 17.15,18 L17.535,13 L19,13 L18,7 Z" id="Fill-5" fill="#008695"></path>
        </g>
    </g>
</svg>