<?xml version="1.0" encoding="UTF-8" standalone="no"?>
<svg width="26px" height="32px" viewBox="0 0 26 32" version="1.1" xmlns="http://www.w3.org/2000/svg" xmlns:xlink="http://www.w3.org/1999/xlink">
    <!-- Generator: Sketch 48.2 (47327) - http://www.bohemiancoding.com/sketch -->
    <title>icons/marker-event-sel</title>
    <desc>Created with Sketch.</desc>
    <defs>
        <path d="M15.1330574,16.92625 C15.0290574,16.92625 14.9250574,16.89925 14.8330574,16.84325 L13.0000574,15.74625 L11.1680574,16.84325 C10.9730574,16.96225 10.7280574,16.95225 10.5390574,16.82425 C10.3510574,16.69625 10.2550574,16.47025 10.2920574,16.24425 L10.6640574,14.05025 L9.16605743,12.51525 C9.01005743,12.35425 8.95905743,12.11825 9.03405743,11.90825 C9.11005743,11.69925 9.29905743,11.55025 9.52105743,11.52625 L11.5570574,11.30425 L12.4690574,9.31125 C12.6600574,8.89625 13.3410574,8.89625 13.5310574,9.31125 L14.4440574,11.30425 L16.4800574,11.52625 C16.7010574,11.55025 16.8900574,11.69925 16.9660574,11.90825 C17.0410574,12.11825 16.9900574,12.35425 16.8340574,12.51525 L15.3360574,14.05025 L15.6820574,16.08825 C15.7190574,16.16425 15.7400574,16.25125 15.7400574,16.34225 C15.7400574,16.67025 15.4610574,16.97125 15.1450574,16.92625 L15.1330574,16.92625 Z" id="path-1"></path>
    </defs>
    <g id="Symbols" stroke="none" stroke-width="1" fill="none" fill-rule="evenodd">
        <g id="icons/marker-event-sel">
            <path d="M4.514,4.513 C2.248,6.779 1,9.792 1,13 C1,21 11.518,30.344 11.518,30.344 C11.896,30.762 12.436,31 13,31 C13.564,31 14.104,30.762 14.482,30.342 C14.482,30.342 25,21 25,13 C25,9.795 23.752,6.781 21.484,4.513 C19.217,2.248 16.203,1 13,1 C9.799,1 6.785,2.248 4.514,4.513 Z" id="Fill-3" stroke="#000000" stroke-width="2" fill="#E60000"></path>
            <g id="Fill-3">
                <use fill="#FFFFFF" fill-rule="evenodd" xlink:href="#path-1"></use>
                <path stroke-opacity="0.1" stroke="#000000" stroke-width="2" d="M15.0841062,17.9255025 C14.8136578,17.9172412 14.5483221,17.840619 14.3195258,17.7013207 L13.0001879,16.9117333 L11.6889761,17.6968563 C11.1577746,18.0210254 10.4901395,17.9988728 9.97626645,17.6508492 C9.4659098,17.3033724 9.20552219,16.6914995 9.30612891,16.0770825 L9.59309231,14.3846156 L8.44788687,13.2111171 C8.02720624,12.7769531 7.88912136,12.1408572 8.09426401,11.5665069 C8.30059953,10.9990843 8.81244216,10.5970303 9.41266256,10.5321421 L10.8840657,10.3717042 L11.5606501,8.89316374 C12.1088829,7.70197729 13.8941045,7.70197729 14.4402014,8.89476808 L15.1167773,10.3716746 L16.58802,10.532095 C17.1883075,10.5972846 17.6996939,10.9995752 17.9077993,11.5719136 C18.1109935,12.1408572 17.9729086,12.7769531 17.5497371,13.2136787 L16.4071173,14.3845207 L16.6500089,15.8151947 C16.7092421,15.9831453 16.7400574,16.1614551 16.7400574,16.34225 C16.7400574,17.2286832 15.996867,18.0062722 15.0841062,17.9255025 Z"></path>
            </g>
        </g>
    </g>
</svg>